<?xml version="1.0" encoding="UTF-8" standalone="no" ?>
<!DOCTYPE svg PUBLIC "-//W3C//DTD SVG 1.1//EN" "http://www.w3.org/Graphics/SVG/1.1/DTD/svg11.dtd">
<svg xmlns="http://www.w3.org/2000/svg" xmlns:xlink="http://www.w3.org/1999/xlink" version="1.1" viewBox="0 0 1080 1080" xml:space="preserve">
<desc>Created with Fabric.js 5.2.4</desc>
<defs>
</defs>
<g transform="matrix(1 0 0 1 540 540)" id="ef2d2c6b-4cbe-4788-968c-fccb7a6a6bd1"  >
<rect style="stroke: none; stroke-width: 1; stroke-dasharray: none; stroke-linecap: butt; stroke-dashoffset: 0; stroke-linejoin: miter; stroke-miterlimit: 4; fill: rgb(255,255,255); fill-rule: nonzero; opacity: 1; visibility: hidden;" vector-effect="non-scaling-stroke"  x="-540" y="-540" rx="0" ry="0" width="1080" height="1080" />
</g>
<g transform="matrix(1 0 0 1 540 540)" id="589b6c3c-73f9-41c8-9487-99417a27ab3b"  >
</g>
<g transform="matrix(0.27 0 0 0.27 173.68 179.37)" clip-path="url(#CLIPPATH_3)"  >
<clipPath id="CLIPPATH_3" >
	<path transform="matrix(0.89 0 0 0.89 -0.17 0) translate(-160.98, -184.86)" id="clip_5" clip-path="url(#undefined)" d="M 292.29164 328.13026 L 160.59903 70.498249 L 28.20481 328.13026 L 0 328.13026 L 148.32083 41.591829 L 173.64902 41.591829 L 321.96986 328.13026 L 292.29164 328.13026 Z" stroke-linecap="round" />
</clipPath>
<path style="stroke: none; stroke-width: 1; stroke-dasharray: none; stroke-linecap: butt; stroke-dashoffset: 0; stroke-linejoin: miter; stroke-miterlimit: 4; fill: rgb(255,255,255); fill-rule: nonzero; opacity: 1;" vector-effect="non-scaling-stroke"  transform=" translate(-144, -128)" d="M 0 0 L 288 0 L 288 256 L 0 256 Z" stroke-linecap="round" />
</g>
<g transform="matrix(0.55 0 0 0.55 303.26 205.42)" clip-path="url(#CLIPPATH_4)"  >
<clipPath id="CLIPPATH_4" >
	<path transform="matrix(0.44 0 0 0.44 -41.02 0.01) translate(-607.07, -293.42)" id="clip_9" clip-path="url(#undefined)" d="M 423.27824 35.08083 L 562.1983 35.08083 L 562.1983 433.80955 L 790.8551 433.80955 L 778.57687 551.7512 L 423.27824 551.7512 L 423.27824 35.08083 Z" stroke-linecap="round" />
</clipPath>
<path style="stroke: none; stroke-width: 1; stroke-dasharray: none; stroke-linecap: butt; stroke-dashoffset: 0; stroke-linejoin: miter; stroke-miterlimit: 4; fill: rgb(255,255,255); fill-rule: nonzero; opacity: 1;" vector-effect="non-scaling-stroke"  transform=" translate(-136.5, -128)" d="M 0 0 L 273 0 L 273 256 L 0 256 Z" stroke-linecap="round" />
</g>
<g transform="matrix(0.55 0 0 0.55 303.26 205.42)" clip-path="url(#CLIPPATH_5)"  >
<clipPath id="CLIPPATH_5" >
	<path transform="matrix(0.44 0 0 0.44 92.04 0.01) translate(-912.06, -293.42)" id="clip_13" clip-path="url(#undefined)" d="M 978.2569 129.86922 L 845.8619 129.86922 L 845.8619 35.08083 L 978.2569 35.08083 L 978.2569 129.86922 Z M 977.5553 551.7512 L 846.5635 551.7512 L 846.5635 171.8259 L 977.5553 171.8259 L 977.5553 551.7512 Z" stroke-linecap="round" />
</clipPath>
<path style="stroke: none; stroke-width: 1; stroke-dasharray: none; stroke-linecap: butt; stroke-dashoffset: 0; stroke-linejoin: miter; stroke-miterlimit: 4; fill: rgb(255,255,255); fill-rule: nonzero; opacity: 1;" vector-effect="non-scaling-stroke"  transform=" translate(-136.5, -128)" d="M 0 0 L 273 0 L 273 256 L 0 256 Z" stroke-linecap="round" />
</g>
<g transform="matrix(0.56 0 0 0.56 627.4 206.81)" clip-path="url(#CLIPPATH_6)"  >
<clipPath id="CLIPPATH_6" >
	<path transform="matrix(0.43 0 0 0.43 -342.06 -0.16) translate(-1252.13, -298.82)" id="clip_17" clip-path="url(#undefined)" d="M 1188.1085 35.080797 L 1188.1085 208.73072 C 1214.1384 175.8951 1249.8507 159.54744 1295.175 159.54744 C 1343.4463 159.54744 1380.7722 176.66689 1407.3635 210.90573 C 1433.9547 245.14459 1447.145 293.41578 1447.145 355.6491 C 1447.145 388.48475 1443.4265 417.7421 1435.9192 443.56156 C 1428.4119 469.381 1417.6773 491.06098 1403.7151 508.6715 C 1389.7529 526.2821 1372.9141 539.683 1353.4092 548.80398 C 1333.9043 557.9249 1312.0139 562.5556 1287.9485 562.5556 C 1242.624 562.5556 1208.1045 545.7168 1184.4601 511.89897 L 1184.4601 551.6806 L 1057.1168 551.6806 L 1057.1168 35.080797 L 1188.1085 35.080797 Z M 1188.1085 365.75236 C 1188.1085 383.0823 1189.4415 397.6057 1192.1077 409.18238 C 1194.7738 420.75904 1198.4924 429.95024 1203.3335 436.68574 C 1209.157 444.89463 1216.2433 450.57774 1224.6627 453.66487 C 1233.082 456.75193 1241.6419 458.36567 1250.3418 458.36567 C 1269.6362 458.36567 1285.2122 451.13905 1296.9993 436.68574 C 1308.7864 422.23246 1314.7501 397.1146 1314.7501 361.40235 C 1314.7501 326.18125 1308.9268 301.34403 1297.3501 286.89076 C 1285.7734 272.43745 1270.3379 265.21083 1251.0435 265.21083 C 1241.8523 265.21083 1233.2224 266.89469 1225.0134 270.26246 C 1216.8046 273.6302 1209.5779 279.94474 1203.3335 289.06575 C 1193.2302 303.519 1188.1787 325.4796 1188.1787 354.94749 L 1188.1085 365.75236 Z" stroke-linecap="round" />
</clipPath>
<path style="stroke: none; stroke-width: 1; stroke-dasharray: none; stroke-linecap: butt; stroke-dashoffset: 0; stroke-linejoin: miter; stroke-miterlimit: 4; fill: rgb(255,255,255); fill-rule: nonzero; opacity: 1;" vector-effect="non-scaling-stroke"  transform=" translate(-440.5, -128)" d="M 0 0 L 881 0 L 881 256 L 0 256 Z" stroke-linecap="round" />
</g>
<g transform="matrix(0.56 0 0 0.56 627.4 206.81)" clip-path="url(#CLIPPATH_7)"  >
<clipPath id="CLIPPATH_7" >
	<path transform="matrix(0.43 0 0 0.43 -153.38 26.77) translate(-1693.17, -361.75)" id="clip_21" clip-path="url(#undefined)" d="M 1881.3049 392.5541 L 1630.8983 392.5541 C 1633.2838 420.05744 1639.458 439.7027 1649.3508 451.4898 C 1659.2435 463.27699 1674.7493 469.24073 1696.0083 469.24073 C 1728.8439 469.24073 1748.8399 455.98017 1756.0665 429.4591 L 1878.3582 429.4591 C 1870.6404 474.29234 1851.346 507.8296 1820.4749 530.0007 C 1789.6038 552.1717 1748.5593 563.2572 1697.4817 563.2572 C 1633.7749 563.2572 1585.7844 546.3483 1553.51 512.6006 C 1521.2357 478.85285 1505.0283 430.58168 1505.0283 367.8572 C 1505.0283 334.60063 1509.5889 305.0626 1518.78 279.2431 C 1527.9712 253.42365 1540.881 231.74373 1557.5093 214.13318 C 1574.1376 196.52262 1594.4143 183.12174 1618.2693 174.00075 C 1642.124 164.87973 1668.9961 160.24907 1698.9551 160.24907 C 1728.9141 160.24907 1755.1546 164.73941 1777.8167 173.64994 C 1800.4788 182.56046 1819.5628 195.40003 1834.9983 212.02834 C 1850.4338 228.65663 1862.0105 248.793 1869.7283 272.43745 C 1877.446 296.0819 1881.3049 322.39253 1881.3049 351.29908 L 1881.3049 392.5541 Z M 1698.9551 252.86237 C 1676.7839 252.86237 1660.3662 258.68577 1649.7717 270.26246 C 1639.1774 281.8391 1632.8628 297.76579 1630.9685 318.04249 L 1760.4867 318.04249 C 1759.5044 294.88917 1754.102 278.26087 1744.2092 268.08744 C 1734.3164 257.914 1719.2317 252.86237 1698.9551 252.86237" stroke-linecap="round" />
</clipPath>
<path style="stroke: none; stroke-width: 1; stroke-dasharray: none; stroke-linecap: butt; stroke-dashoffset: 0; stroke-linejoin: miter; stroke-miterlimit: 4; fill: rgb(255,255,255); fill-rule: nonzero; opacity: 1;" vector-effect="non-scaling-stroke"  transform=" translate(-440.5, -128)" d="M 0 0 L 881 0 L 881 256 L 0 256 Z" stroke-linecap="round" />
</g>
<g transform="matrix(0.56 0 0 0.56 627.4 206.81)" clip-path="url(#CLIPPATH_8)"  >
<clipPath id="CLIPPATH_8" >
	<path transform="matrix(0.43 0 0 0.43 13.46 25.39) translate(-2083.12, -358.53)" id="clip_25" clip-path="url(#undefined)" d="M 1947.8181 171.82573 L 2075.1617 171.82573 L 2075.1617 218.13237 C 2088.6324 199.8202 2104.1383 186.41934 2121.4683 177.99994 C 2138.798 169.58055 2158.8643 165.3007 2181.5264 165.3007 C 2195.4888 165.3007 2207.837 166.49344 2218.4315 168.9491 L 2203.978 281.06733 C 2198.646 279.59394 2192.4014 278.5415 2185.1749 277.8399 C 2177.9483 277.13829 2170.7218 276.78746 2163.4949 276.78746 C 2152.9005 276.78746 2142.3765 277.8399 2131.9923 280.0149 C 2121.6085 282.1899 2112.3472 286.18913 2104.1383 291.94236 C 2095.438 298.6779 2089.0535 307.16743 2084.9842 317.2707 C 2080.9149 327.374 2078.8099 340.63453 2078.8099 357.05235 L 2078.8099 551.75076 L 1947.8181 551.75076 L 1947.8181 171.82573 Z" stroke-linecap="round" />
</clipPath>
<path style="stroke: none; stroke-width: 1; stroke-dasharray: none; stroke-linecap: butt; stroke-dashoffset: 0; stroke-linejoin: miter; stroke-miterlimit: 4; fill: rgb(255,255,255); fill-rule: nonzero; opacity: 1;" vector-effect="non-scaling-stroke"  transform=" translate(-440.5, -128)" d="M 0 0 L 881 0 L 881 256 L 0 256 Z" stroke-linecap="round" />
</g>
<g transform="matrix(0.56 0 0 0.56 627.4 206.81)" clip-path="url(#CLIPPATH_9)"  >
<clipPath id="CLIPPATH_9" >
	<path transform="matrix(0.43 0 0 0.43 162.4 26.77) translate(-2431.27, -361.75)" id="clip_29" clip-path="url(#undefined)" d="M 2619.335 392.5541 L 2368.998 392.5541 C 2371.3839 420.05744 2377.558 439.7027 2387.4508 451.4898 C 2397.3433 463.27699 2412.849 469.24073 2434.1082 469.24073 C 2466.9439 469.24073 2486.94 455.98017 2494.1666 429.4591 L 2616.458 429.4591 C 2608.7403 474.29234 2589.4459 507.8296 2558.5748 530.0007 C 2527.7037 552.1717 2486.6593 563.2572 2435.5816 563.2572 C 2371.875 563.2572 2323.8843 546.3483 2291.6099 512.6006 C 2259.3358 478.85285 2243.1285 430.58168 2243.1285 367.8572 C 2243.1285 334.60063 2247.6888 305.0626 2256.88 279.2431 C 2266.0714 253.42365 2278.981 231.74373 2295.6094 214.13318 C 2312.2376 196.52262 2332.5142 183.12174 2356.3692 174.00075 C 2380.224 164.87973 2407.0958 160.24907 2437.055 160.24907 C 2467.0142 160.24907 2493.2545 164.73941 2515.9166 173.64994 C 2538.5787 182.56046 2557.6627 195.40003 2573.0982 212.02834 C 2588.5338 228.65663 2600.1104 248.793 2607.8282 272.43745 C 2615.546 296.0819 2619.4049 322.39253 2619.4049 351.29908 L 2619.335 392.5541 Z M 2436.9849 252.93253 C 2414.8138 252.93253 2398.396 258.75596 2387.8013 270.3326 C 2377.207 281.90925 2370.8927 297.83595 2368.998 318.11265 L 2498.5167 318.11265 C 2497.5343 294.95933 2492.1319 278.33103 2482.239 268.1576 C 2472.3463 257.98417 2457.2615 252.93253 2436.9849 252.93253" stroke-linecap="round" />
</clipPath>
<path style="stroke: none; stroke-width: 1; stroke-dasharray: none; stroke-linecap: butt; stroke-dashoffset: 0; stroke-linejoin: miter; stroke-miterlimit: 4; fill: rgb(255,255,255); fill-rule: nonzero; opacity: 1;" vector-effect="non-scaling-stroke"  transform=" translate(-440.5, -128)" d="M 0 0 L 881 0 L 881 256 L 0 256 Z" stroke-linecap="round" />
</g>
<g transform="matrix(0.56 0 0 0.56 627.4 206.81)" clip-path="url(#CLIPPATH_10)"  >
<clipPath id="CLIPPATH_10" >
	<path transform="matrix(0.43 0 0 0.43 346.4 26.8) translate(-2861.36, -361.82)" id="clip_33" clip-path="url(#undefined)" d="M 3045.496 405.53398 C 3043.1109 428.68733 3037.9888 450.01646 3030.3414 469.59153 C 3022.6937 489.1666 3011.538 505.7949 2997.0848 519.5466 C 2982.6314 533.2982 2964.6 544.03298 2943.2008 551.75076 C 2921.8013 559.4685 2896.5433 563.3274 2867.5665 563.3274 C 2834.731 563.3274 2806.3155 558.4161 2782.1798 548.5233 C 2758.0443 538.6305 2738.399 525.1595 2723.1739 507.9699 C 2707.9488 490.7803 2696.5128 470.01249 2688.795 445.38578 C 2681.077 420.75904 2677.2183 394.02748 2677.2183 365.05076 C 2677.2183 333.1974 2681.568 304.6416 2690.1978 279.3133 C 2698.828 253.98496 2711.457 232.5155 2727.8048 214.90496 C 2744.1524 197.29439 2764.4288 183.82337 2788.5645 174.4217 C 2812.7003 165.02005 2840.2034 160.31923 2871.0745 160.31923 C 2899.069 160.31923 2923.2047 164.03778 2943.4112 171.54509 C 2963.6177 179.05239 2980.667 189.15564 2994.4185 201.92505 C 3008.1702 214.69448 3018.905 229.7792 3026.6229 247.17928 C 3034.3406 264.57936 3039.1817 282.8915 3041.0762 302.18595 L 2915.9078 314.46424 C 2914.0133 300.9932 2909.3829 289.2762 2902.156 279.38346 C 2894.9295 269.49067 2883.3529 264.57936 2867.4263 264.57936 C 2847.6407 264.57936 2833.0469 272.78828 2823.6453 289.2762 C 2814.2437 305.76423 2809.543 330.18046 2809.543 362.5951 C 2809.543 393.1154 2813.963 416.83003 2822.9437 433.80909 C 2831.9244 450.7882 2846.7286 459.20759 2867.4263 459.20759 C 2897.8062 459.20759 2914.9256 441.38658 2918.7843 405.67433 L 3045.496 405.53398 Z" stroke-linecap="round" />
</clipPath>
<path style="stroke: none; stroke-width: 1; stroke-dasharray: none; stroke-linecap: butt; stroke-dashoffset: 0; stroke-linejoin: miter; stroke-miterlimit: 4; fill: rgb(255,255,255); fill-rule: nonzero; opacity: 1;" vector-effect="non-scaling-stroke"  transform=" translate(-440.5, -128)" d="M 0 0 L 881 0 L 881 256 L 0 256 Z" stroke-linecap="round" />
</g>
<g transform="matrix(1 0 0 -1 173.64 179.37)"  >
<path style="stroke: none; stroke-width: 1; stroke-dasharray: none; stroke-linecap: butt; stroke-dashoffset: 0; stroke-linejoin: miter; stroke-miterlimit: 4; fill: rgb(0,0,0); fill-opacity: 0; fill-rule: nonzero; opacity: 1;" vector-effect="non-scaling-stroke"  transform=" translate(-38.64, -773.55)" d="M 0 739.16879 L 77.276187 739.16879 L 77.276187 807.938 L 0 807.938 Z" stroke-linecap="round" />
</g>
<g transform="matrix(1 0 0 -1 303.19 205.42)"  >
<path style="stroke: none; stroke-width: 1; stroke-dasharray: none; stroke-linecap: butt; stroke-dashoffset: 0; stroke-linejoin: miter; stroke-miterlimit: 4; fill: rgb(0,0,0); fill-opacity: 0; fill-rule: nonzero; opacity: 1;" vector-effect="non-scaling-stroke"  transform=" translate(-168.19, -747.5)" d="M 93.16738 677.0866 L 243.20612 677.0866 L 243.20612 817.92 L 93.16738 817.92 Z" stroke-linecap="round" />
</g>
<g transform="matrix(1 0 0 -1 627.32 206.81)"  >
<path style="stroke: none; stroke-width: 1; stroke-dasharray: none; stroke-linecap: butt; stroke-dashoffset: 0; stroke-linejoin: miter; stroke-miterlimit: 4; fill: rgb(0,0,0); fill-opacity: 0; fill-rule: nonzero; opacity: 1;" vector-effect="non-scaling-stroke"  transform=" translate(-492.32, -746.11)" d="M 245.28865 674.3082 L 739.3453 674.3082 L 739.3453 817.92007 L 245.28865 817.92007 Z" stroke-linecap="round" />
</g>
</svg>