<?xml version="1.0" encoding="UTF-8" standalone="no" ?>
<!DOCTYPE svg PUBLIC "-//W3C//DTD SVG 1.1//EN" "http://www.w3.org/Graphics/SVG/1.1/DTD/svg11.dtd">
<svg xmlns="http://www.w3.org/2000/svg" xmlns:xlink="http://www.w3.org/1999/xlink" version="1.1"  viewBox="0 0 1080 1080" xml:space="preserve">
<desc>Created with Fabric.js 5.2.4</desc>
<defs>
</defs>
<g transform="matrix(1 0 0 1 540 540)" id="09a2cafb-5526-40c2-9bb3-89b79491b35a"  >
</g>
<g transform="matrix(1 0 0 1 540 540)" id="ae83b70b-a865-448a-995e-e99c009829a9"  >
<rect style="stroke: none; stroke-width: 1; stroke-dasharray: none; stroke-linecap: butt; stroke-dashoffset: 0; stroke-linejoin: miter; stroke-miterlimit: 4; fill: rgb(255,255,255); fill-rule: nonzero; opacity: 1; visibility: hidden;" vector-effect="non-scaling-stroke"  x="-540" y="-540" rx="0" ry="0" width="1080" height="1080" />
</g>
<g transform="matrix(1.9 0 0 -1.9 37.99 184.75)" clip-path="url(#CLIPPATH_9)"  >
<clipPath id="CLIPPATH_9" >
	<path transform="matrix(0.13 0 0 -0.13 204.5 -27.49) translate(-1687.5, -960.94)" d="M 0 0 L 3375 0 L 3375 1921.875 L 0 1921.875 Z" stroke-linecap="round" />
</clipPath>
<path style="stroke: none; stroke-width: 1; stroke-dasharray: none; stroke-linecap: butt; stroke-dashoffset: 0; stroke-linejoin: miter; stroke-miterlimit: 4; fill: rgb(255,255,255); fill-rule: nonzero; opacity: 1;" vector-effect="non-scaling-stroke"  transform=" translate(9.21, 29.02)" d="M 0 0 L 5.528 0 L 5.528 -38.27 C 5.528 -41.605 5.35 -44.206 5.001 -46.086 C 4.6549999 -47.966 4.0559999 -49.587999 3.229 -50.962999 C 1.9280001 -53.205999 0.13400007 -54.948999 -2.1599999 -56.187997 C -4.4639999 -57.422998 -7.021 -58.037996 -9.851999 -58.037996 C -14.084999 -58.037996 -17.494 -56.667997 -20.074999 -53.917997 C -22.661999 -51.166997 -23.953999 -47.524995 -23.953999 -42.990999 L -18.431 -42.990999 C -18.27 -45.789999 -17.365 -48.054998 -15.708 -49.770998 C -14.053 -51.497999 -12.001 -52.353998 -9.546 -52.353998 C -6.0759994 -52.353998 -3.6239997 -51.263998 -2.1729995 -49.071996 C -0.7249994 -46.874998 7.1525576e-7 -42.496995 7.1525576e-7 -35.932996 L 0 0 Z" stroke-linecap="round" />
</g>
<g transform="matrix(1.9 0 0 -1.9 121.6 183.58)" clip-path="url(#CLIPPATH_10)"  >
<clipPath id="CLIPPATH_10" >
	<path transform="matrix(0.13 0 0 -0.13 160.5 -28.1) translate(-1687.5, -960.94)" d="M 0 0 L 3375 0 L 3375 1921.875 L 0 1921.875 Z" stroke-linecap="round" />
</clipPath>
<path style="stroke: none; stroke-width: 1; stroke-dasharray: none; stroke-linecap: butt; stroke-dashoffset: 0; stroke-linejoin: miter; stroke-miterlimit: 4; fill: rgb(255,255,255); fill-rule: nonzero; opacity: 1;" vector-effect="non-scaling-stroke"  transform=" translate(10.64, -5.53)" d="M 0 0 L -10.751 28.579 L -21.345 0 L 0 0 Z M -30.083 -22.879 L -35.973 -22.879 L -13.939999 33.934999 L -7.2409989 33.934999 L 14.698 -22.879 L 8.738 -22.879 L 1.947 -5.065 L -23.298 -5.065 L -30.083 -22.879 Z" stroke-linecap="round" />
</g>
<g transform="matrix(1.9 0 0 -1.9 208.57 183.58)" clip-path="url(#CLIPPATH_11)"  >
<clipPath id="CLIPPATH_11" >
	<path transform="matrix(0.13 0 0 -0.13 114.73 -28.1) translate(-1687.5, -960.94)" d="M 0 0 L 3375 0 L 3375 1921.875 L 0 1921.875 Z" stroke-linecap="round" />
</clipPath>
<path style="stroke: none; stroke-width: 1; stroke-dasharray: none; stroke-linecap: butt; stroke-dashoffset: 0; stroke-linejoin: miter; stroke-miterlimit: 4; fill: rgb(255,255,255); fill-rule: nonzero; opacity: 1;" vector-effect="non-scaling-stroke"  transform=" translate(-10.82, -1.54)" d="M 0 0 L 0 -21.49 L 7.859 -21.49 C 12.463 -21.49 15.858 -20.615 18.044 -18.869 C 20.242 -17.118 21.337 -14.431999 21.337 -10.799999 C 21.337 -7.1709997 20.223 -4.4689996 17.991 -2.6779996 C 15.756 -0.886 12.38 0 7.859 0 L 0 0 Z M 0 24.568 L 0 5.375 L 3.368 5.375 C 8.894 5.375 12.758 6.143 14.966 7.671 C 17.164 9.1970009 18.267 11.6970009 18.267 15.173 C 18.267 18.434 17.201 20.819 15.058001 22.317002 C 12.919001 23.819003 9.498001 24.568 4.811001 24.568 L 0 24.568 Z M -5.375 29.946002 L 5.243 29.946002 C 11.67 29.946002 16.395 28.729 19.418999 26.295002 C 22.435999 23.862002 23.953999 20.067002 23.953999 14.915002 C 23.953999 12.310001 23.446 10.0910019 22.435999 8.243002 C 21.422999 6.395002 19.903 4.883002 17.883 3.7120019 C 20.924 2.441002 23.212 0.6530018 24.737999 -1.6489983 C 26.258 -3.9509984 27.021 -6.7659986 27.021 -10.093998 C 27.021 -15.865997 25.431 -20.103999 22.244999 -22.805998 C 19.067999 -25.513998 14.063999 -26.867999 7.235999 -26.867999 L -5.375 -26.867999 L -5.375 29.946002 Z" stroke-linecap="round" />
</g>
<g transform="matrix(1.9 0 0 -1.9 283.14 183.59)" clip-path="url(#CLIPPATH_12)"  >
<clipPath id="CLIPPATH_12" >
	<path transform="matrix(0.13 0 0 -0.13 75.49 -28.1) translate(-1687.5, -960.94)" d="M 0 0 L 3375 0 L 3375 1921.875 L 0 1921.875 Z" stroke-linecap="round" />
</clipPath>
<path style="stroke: none; stroke-width: 1; stroke-dasharray: none; stroke-linecap: butt; stroke-dashoffset: 0; stroke-linejoin: miter; stroke-miterlimit: 4; fill: rgb(255,255,255); fill-rule: nonzero; opacity: 1;" vector-effect="non-scaling-stroke"  transform=" translate(12.82, -28.41)" d="M 0 0 L -25.643 0 L -25.643 56.813 L -19.965 56.813 L -19.965 5.533 L 0 5.533 L 0 0 Z" stroke-linecap="round" />
</g>
<g transform="matrix(1.9 0 0 -1.9 354.97 183.59)" clip-path="url(#CLIPPATH_13)"  >
<clipPath id="CLIPPATH_13" >
	<path transform="matrix(0.13 0 0 -0.13 37.69 -28.1) translate(-1687.5, -960.94)" d="M 0 0 L 3375 0 L 3375 1921.875 L 0 1921.875 Z" stroke-linecap="round" />
</clipPath>
<path style="stroke: none; stroke-width: 1; stroke-dasharray: none; stroke-linecap: butt; stroke-dashoffset: 0; stroke-linejoin: miter; stroke-miterlimit: 4; fill: rgb(255,255,255); fill-rule: nonzero; opacity: 1;" vector-effect="non-scaling-stroke"  transform=" translate(-23.18, 0.3)" d="M 0 0 C 0 -6.916 2.248 -12.71 6.76 -17.383 C 11.268 -22.064999 16.83 -24.398999 23.454 -24.398999 C 29.914002 -24.398999 35.379 -22.037999 39.835 -17.307999 C 44.291 -12.580998 46.517999 -6.7609989 46.517999 0.15300179 C 46.517999 6.597002 44.226999 12.151002 39.642 16.814002 C 35.053998 21.482003 29.525998 23.813002 23.064 23.813002 C 20.432 23.813002 17.898999 23.360003 15.462999 22.465003 C 13.019 21.568 10.776 20.252 8.719 18.512 C 6.008 16.221 3.87 13.43 2.318 10.131 C 0.77099999 6.833 0 3.454 0 0 M -5.842 0.054000006 C -5.842 3.997 -5.079 7.765 -3.554 11.346 C -2.033 14.934 0.17400003 18.140999 3.0640002 20.967 C 5.847 23.689999 8.907 25.744999 12.25 27.119999 C 15.597 28.498 19.223 29.182999 23.128 29.182999 C 27.104 29.182999 30.792 28.487 34.189 27.102 C 37.584 25.71 40.684 23.639 43.494 20.886 C 46.389 18.060999 48.559 14.891 50.012 11.389 C 51.476 7.881 52.201 4.104 52.201 0.0539999 C 52.201 -3.9700003 51.573 -7.66 50.329 -11.023 C 49.079999 -14.386 47.199998 -17.442 44.708 -20.196 C 41.817 -23.362 38.546 -25.75 34.909 -27.359 C 31.264 -28.970999 27.308 -29.776 23.048 -29.776 C 14.875 -29.776 8.018001 -26.912999 2.479 -21.189 C -3.065 -15.466 -5.842 -8.379999 -5.842 0.054000856" stroke-linecap="round" />
</g>
<g transform="matrix(1.9 0 0 -1.9 464.27 183.59)" clip-path="url(#CLIPPATH_14)"  >
<clipPath id="CLIPPATH_14" >
	<path transform="matrix(0.13 0 0 -0.13 -19.84 -28.1) translate(-1687.5, -960.94)" d="M 0 0 L 3375 0 L 3375 1921.875 L 0 1921.875 Z" stroke-linecap="round" />
</clipPath>
<path style="stroke: none; stroke-width: 1; stroke-dasharray: none; stroke-linecap: butt; stroke-dashoffset: 0; stroke-linejoin: miter; stroke-miterlimit: 4; fill: rgb(255,255,255); fill-rule: nonzero; opacity: 1;" vector-effect="non-scaling-stroke"  transform=" translate(-13.75, -28.41)" d="M 0 0 L -8.286 0 L -8.286 56.813 L 0.191 56.813 L 28.101 13.812 L 27.642 56.813 L 35.78 56.813 L 35.78 0 L 27.905 0 L -0.609 44.286 L 0 0 Z" stroke-linecap="round" />
</g>
<g transform="matrix(1.9 0 0 -1.9 554.29 183.58)" clip-path="url(#CLIPPATH_15)"  >
<clipPath id="CLIPPATH_15" >
	<path transform="matrix(0.13 0 0 -0.13 -67.2 -28.1) translate(-1687.5, -960.94)" d="M 0 0 L 3375 0 L 3375 1921.875 L 0 1921.875 Z" stroke-linecap="round" />
</clipPath>
<path style="stroke: none; stroke-width: 1; stroke-dasharray: none; stroke-linecap: butt; stroke-dashoffset: 0; stroke-linejoin: miter; stroke-miterlimit: 4; fill: rgb(255,255,255); fill-rule: nonzero; opacity: 1;" vector-effect="non-scaling-stroke"  transform=" translate(-9.06, 3.07)" d="M 0 0 L 23.797 0 L 23.797 -5.684 L 0 -5.684 L 0 -25.946 L 23.797 -25.946 L 23.797 -31.479 L -5.684 -31.479 L -5.684 25.334 L 23.797 25.334 L 23.797 19.804 L 0 19.804 L 0 0 Z" stroke-linecap="round" />
</g>
<g transform="matrix(1.9 0 0 -1.9 643.67 181.89)" clip-path="url(#CLIPPATH_16)"  >
<clipPath id="CLIPPATH_16" >
	<path transform="matrix(0.13 0 0 -0.13 -114.25 -28.1) translate(-1687.5, -960.94)" d="M 0 0 L 3375 0 L 3375 1921.875 L 0 1921.875 Z" stroke-linecap="round" />
</clipPath>
<path style="stroke: none; stroke-width: 1; stroke-dasharray: none; stroke-linecap: butt; stroke-dashoffset: 0; stroke-linejoin: miter; stroke-miterlimit: 4; fill: rgb(255,255,255); fill-rule: nonzero; opacity: 1;" vector-effect="non-scaling-stroke"  transform=" translate(20.65, 13.67)" d="M 0 0 C -2.541 3.532 -5.371 6.129 -8.508 7.795 C -11.641001 9.452 -15.215 10.287001 -19.23 10.287001 C -25.527 10.287001 -30.91 7.9450008 -35.373 3.2770005 C -39.84 -1.3959994 -42.072004 -6.9509994 -42.072004 -13.392 C -42.072004 -20.247 -39.848005 -26.024 -35.398004 -30.725 C -30.945004 -35.428 -25.543004 -37.77 -19.184002 -37.77 C -15.266002 -37.77 -11.732002 -36.951 -8.563002 -35.304 C -5.3910019 -33.66 -2.6430016 -31.205002 -0.30700208 -27.942002 L 6.296998 -27.942002 C 3.690998 -32.79 0.21499825 -36.537004 -4.146002 -39.183004 C -8.508001 -41.823 -13.408002 -43.147005 -18.840003 -43.147005 C -27.176003 -43.147005 -34.135004 -40.305006 -39.707 -34.617006 C -45.273004 -28.933005 -48.057 -21.832005 -48.057 -13.317005 C -48.057 -9.342005 -47.307 -5.576005 -45.801 -2.0250054 C -44.291 1.5339947 -42.086 4.7379949 -39.174 7.595995 C -36.479 10.297995 -33.439 12.338995 -30.082 13.730995 C -26.715 15.116995 -23.078001 15.812995 -19.150002 15.812995 C -13.518002 15.812995 -8.447001 14.436995 -3.939001 11.683994 C 0.566 8.934 4.129 5.036 6.758 0 L 0 0 Z" stroke-linecap="round" />
</g>
<g transform="matrix(1.9 0 0 -1.9 464.25 301.99)" clip-path="url(#CLIPPATH_17)"  >
<clipPath id="CLIPPATH_17" >
	<path transform="matrix(0.13 0 0 -0.13 -19.82 33.32) translate(-1687.5, -960.94)" d="M 0 0 L 3375 0 L 3375 1921.875 L 0 1921.875 Z" stroke-linecap="round" />
</clipPath>
<path style="stroke: none; stroke-width: 1; stroke-dasharray: none; stroke-linecap: butt; stroke-dashoffset: 0; stroke-linejoin: miter; stroke-miterlimit: 4; fill: rgb(255,255,255); fill-rule: nonzero; opacity: 1;" vector-effect="non-scaling-stroke"  transform=" translate(-13.75, -28.41)" d="M 0 0 L -8.286 0 L -8.286 56.811 L 0.191 56.811 L 28.1 13.812 L 27.644001 56.811 L 35.78 56.811 L 35.78 0 L 27.905 0 L -0.609 44.286 L 0 0 Z" stroke-linecap="round" />
</g>
<g transform="matrix(1.9 0 0 -1.9 561.45 300.29)" clip-path="url(#CLIPPATH_18)"  >
<clipPath id="CLIPPATH_18" >
	<path transform="matrix(0.13 0 0 -0.13 -70.98 33.32) translate(-1687.5, -960.94)" d="M 0 0 L 3375 0 L 3375 1921.875 L 0 1921.875 Z" stroke-linecap="round" />
</clipPath>
<path style="stroke: none; stroke-width: 1; stroke-dasharray: none; stroke-linecap: butt; stroke-dashoffset: 0; stroke-linejoin: miter; stroke-miterlimit: 4; fill: rgb(255,255,255); fill-rule: nonzero; opacity: 1;" vector-effect="non-scaling-stroke"  transform=" translate(10.64, -5.53)" d="M 0 0 L -10.758 28.579 L -21.359 0 L 0 0 Z M -30.084 -22.879 L -35.977 -22.879 L -13.957001 33.932 L -7.2480008 33.932 L 14.689 -22.879 L 8.729 -22.879 L 1.9430001 -5.065 L -23.307 -5.065 L -30.084 -22.879 Z" stroke-linecap="round" />
</g>
<g transform="matrix(1.9 0 0 -1.9 661.14 300.29)" clip-path="url(#CLIPPATH_19)"  >
<clipPath id="CLIPPATH_19" >
	<path transform="matrix(0.13 0 0 -0.13 -122.55 33.32) translate(-1687.5, -960.94)" d="M 0 0 L 3375 0 L 3375 1921.875 L 0 1921.875 Z" stroke-linecap="round" />
</clipPath>
<path style="stroke: none; stroke-width: 1; stroke-dasharray: none; stroke-linecap: butt; stroke-dashoffset: 0; stroke-linejoin: miter; stroke-miterlimit: 4; fill: rgb(255,255,255); fill-rule: nonzero; opacity: 1;" vector-effect="non-scaling-stroke"  transform=" translate(-17.27, 23.03)" d="M 0 0 L 0 -46.059 L 11.57 -46.059 C 18.791 -46.059 24.346 -44.032999 28.24 -39.972 C 32.135 -35.917 34.084 -30.161 34.084 -22.718 C 34.084 -18.995 33.42 -15.56 32.093999 -12.409 C 30.770998 -9.267 28.876999 -6.6240007 26.411999 -4.4850008 C 24.564 -2.8740006 22.501999 -1.7240007 20.213 -1.0310006 C 17.936 -0.344 14.605 0 10.244 0 L 0 0 Z M -5.533 5.375 L 10.633 5.375 C 15.0720009 5.375 18.807 4.934 21.83 4.05 C 24.85 3.1670004 27.52 1.7460003 29.83 -0.20099974 C 33.074 -2.9359999 35.594 -6.2799999 37.389 -10.233 C 39.176 -14.182 40.074 -18.41 40.074 -22.911 C 40.074 -27.928 39.08 -32.504999 37.113004 -36.625 C 35.137 -40.746 32.354005 -44.109 28.744004 -46.708 C 26.352004 -48.406003 23.768004 -49.612 20.992005 -50.34 C 18.213006 -51.073 13.928004 -51.436 8.139005 -51.436 L -5.533 -51.436 L -5.533 5.375 Z" stroke-linecap="round" />
</g>
<g transform="matrix(1.9 0 0 -1.9 464.25 418.69)" clip-path="url(#CLIPPATH_20)"  >
<clipPath id="CLIPPATH_20" >
	<path transform="matrix(0.13 0 0 -0.13 -19.82 94.73) translate(-1687.5, -960.94)" d="M 0 0 L 3375 0 L 3375 1921.875 L 0 1921.875 Z" stroke-linecap="round" />
</clipPath>
<path style="stroke: none; stroke-width: 1; stroke-dasharray: none; stroke-linecap: butt; stroke-dashoffset: 0; stroke-linejoin: miter; stroke-miterlimit: 4; fill: rgb(255,255,255); fill-rule: nonzero; opacity: 1;" vector-effect="non-scaling-stroke"  transform=" translate(-13.75, -28.41)" d="M 0 0 L -8.286 0 L -8.286 56.811 L 0.19099999 56.811 L 28.1 13.811001 L 27.644001 56.811 L 35.78 56.811 L 35.78 0 L 27.905 0 L -0.609 44.286 L 0 0 Z" stroke-linecap="round" />
</g>
<g transform="matrix(1.9 0 0 -1.9 533.79 416.99)" clip-path="url(#CLIPPATH_21)"  >
<clipPath id="CLIPPATH_21" >
	<path transform="matrix(0.13 0 0 -0.13 -56.42 94.73) translate(-1687.5, -960.94)" d="M 0 0 L 3375 0 L 3375 1921.875 L 0 1921.875 Z" stroke-linecap="round" />
</clipPath>
<path style="stroke: none; stroke-width: 1; stroke-dasharray: none; stroke-linecap: butt; stroke-dashoffset: 0; stroke-linejoin: miter; stroke-miterlimit: 4; fill: rgb(255,255,255); fill-rule: nonzero; opacity: 1;" vector-effect="non-scaling-stroke"  transform=" translate(-348.22, -533.44)" d="M 350.984 505.034 L 345.45503 505.034 L 345.45503 561.845 L 350.984 561.845 L 350.984 505.034 Z" stroke-linecap="round" />
</g>
<g transform="matrix(1.9 0 0 -1.9 586.14 416.99)" clip-path="url(#CLIPPATH_22)"  >
<clipPath id="CLIPPATH_22" >
	<path transform="matrix(0.13 0 0 -0.13 -83.96 94.73) translate(-1687.5, -960.94)" d="M 0 0 L 3375 0 L 3375 1921.875 L 0 1921.875 Z" stroke-linecap="round" />
</clipPath>
<path style="stroke: rgb(255,255,255); stroke-width: 1; stroke-dasharray: none; stroke-linecap: butt; stroke-dashoffset: 0; stroke-linejoin: miter; stroke-miterlimit: 4; fill: rgb(255,255,255); fill-rule: nonzero; opacity: 1;" vector-effect="non-scaling-stroke"  transform=" translate(-16.12, -12.13)" d="M 0 0 L 5.371 0 C 5.4729998 -3.513 6.475 -6.309 8.355 -8.396 C 10.2439999 -10.478 12.724999 -11.517 15.795 -11.517 C 19.09 -11.517 21.717 -10.4800009 23.654 -8.417 C 25.59 -6.35 26.566 -3.5509997 26.566 -0.015999794 C 26.566 5.136 22.615 9.017 14.723 11.646 C 14.105 11.848 13.639 12.009 13.33 12.114 C 9.146 13.542 6.137 15.358 4.297 17.556 C 2.449 19.755 1.5349999 22.621 1.5349999 26.159 C 1.5349999 30.685002 2.9429999 34.391 5.764 37.281 C 8.584 40.168 12.23 41.611 16.703 41.611 C 20.963 41.611 24.343998 40.29 26.845999 37.663003 C 29.339999 35.030004 30.727 31.332003 31.015999 26.570002 L 25.788998 26.570002 C 25.499999 29.659003 24.585999 32.041 23.028998 33.72 C 21.464999 35.398004 19.380997 36.239004 16.759999 36.239004 C 13.948998 36.239004 11.661999 35.320005 9.882998 33.486005 C 8.103998 31.654004 7.2129986 29.325005 7.2129986 26.492005 C 7.2129986 25.012005 7.4819986 23.728005 8.013998 22.653004 C 8.544998 21.574004 9.394999 20.593005 10.567998 19.709004 C 11.751998 18.826004 14.040998 17.837004 17.413998 16.747004 C 19.358998 16.126004 20.841998 15.616003 21.856999 15.229004 C 25.530999 13.798004 28.185999 11.974004 29.808999 9.753004 C 31.435999 7.5320045 32.238 4.615004 32.238 1.0050039 C 32.238 -4.506996 30.735999 -8.940996 27.729 -12.306996 C 24.715 -15.666996 20.725 -17.347996 15.746 -17.347996 C 11.107 -17.347996 7.3480007 -15.760996 4.455 -12.575996 C 1.561 -9.39 0.07400001 -5.2 0 0" stroke-linecap="round" />
</g>
<g transform="matrix(1.9 0 0 -1.9 683.93 416.99)" clip-path="url(#CLIPPATH_23)"  >
<clipPath id="CLIPPATH_23" >
	<path transform="matrix(0.13 0 0 -0.13 -134.54 94.73) translate(-1687.5, -960.94)" d="M 0 0 L 3375 0 L 3375 1921.875 L 0 1921.875 Z" stroke-linecap="round" />
</clipPath>
<path style="stroke: rgb(255,255,255); stroke-width: 1; stroke-dasharray: none; stroke-linecap: butt; stroke-dashoffset: 0; stroke-linejoin: miter; stroke-miterlimit: 4; fill: rgb(255,255,255); fill-rule: nonzero; opacity: 1;" vector-effect="non-scaling-stroke"  transform=" translate(-23.18, 0.29)" d="M 0 0 C 0 -6.908 2.25 -12.702 6.756 -17.383 C 11.268 -22.057 16.828 -24.398999 23.451 -24.398999 C 29.918 -24.398999 35.373 -22.036 39.834 -17.302998 C 44.289 -12.572998 46.521 -6.7549974 46.521 0.16100312 C 46.521 6.6050035 44.225 12.157003 39.641 16.825003 C 35.055 21.482003 29.530999 23.819003 23.063 23.819003 C 20.428 23.819003 17.893 23.368002 15.459 22.471003 C 13.02 21.574 10.773 20.257 8.711 18.517 C 6.006 16.229 3.875 13.435 2.3240002 10.137 C 0.775 6.8380005 0 3.459 0 0 M -5.836 0.062000004 C -5.836 4.005 -5.078 7.7679998 -3.559 11.354 C -2.0370002 14.934 0.16799999 18.146 3.0609999 20.972 C 5.844 23.701 8.912 25.748002 12.252 27.123002 C 15.598 28.503 19.217 29.191002 23.125 29.191002 C 27.105 29.191002 30.789 28.493002 34.191 27.107003 C 37.582 25.715003 40.691 23.645003 43.5 20.897004 C 46.387 18.066004 48.557 14.896004 50.016 11.394003 C 51.473 7.886003 52.204999 4.110003 52.204999 0.062003137 C 52.204999 -3.963997 51.573999 -7.654997 50.328 -11.017997 C 49.082 -14.379997 47.207 -17.436997 44.709 -20.189997 C 41.82 -23.359997 38.553 -25.744997 34.91 -27.358998 C 31.268 -28.964997 27.309 -29.767998 23.041 -29.767998 C 14.873 -29.767998 8.018001 -26.907998 2.4750005 -21.180998 C -3.0679999 -15.459998 -5.8359997 -8.374998 -5.8359997 0.062002183" stroke-linecap="round" />
</g>
<g transform="matrix(1.9 0 0 -1.9 783.52 418.17)" clip-path="url(#CLIPPATH_24)"  >
<clipPath id="CLIPPATH_24" >
	<path transform="matrix(0.13 0 0 -0.13 -187.83 95.34) translate(-1687.5, -960.94)" d="M 0 0 L 3375 0 L 3375 1921.875 L 0 1921.875 Z" stroke-linecap="round" />
</clipPath>
<path style="stroke: rgb(255,255,255); stroke-width: 1; stroke-dasharray: none; stroke-linecap: butt; stroke-dashoffset: 0; stroke-linejoin: miter; stroke-miterlimit: 4; fill: rgb(255,255,255); fill-rule: nonzero; opacity: 1;" vector-effect="non-scaling-stroke"  transform=" translate(-18.12, 29.02)" d="M 0 0 L 5.533 0 L 5.533 -35.981 C 5.533 -38.772 5.641 -40.854 5.863 -42.229 C 6.082 -43.609 6.455 -44.839 6.979 -45.9 C 7.988 -48.068 9.482 -49.760004 11.445 -50.985 C 13.406 -52.204004 15.632999 -52.816 18.102 -52.816 C 22.397999 -52.816 25.566 -51.355005 27.625 -48.425004 C 29.68 -45.495004 30.709 -40.958005 30.709 -34.807004 L 30.709 0 L 36.239999 0 L 36.239999 -36.177 C 36.239999 -43.528 34.779 -49.013 31.853999 -52.622999 C 28.927998 -56.232999 24.485999 -58.038 18.532998 -58.038 C 12.157997 -58.038 7.4729969 -56.275999 4.485997 -52.736 C 1.5 -49.209 0 -43.685 0 -36.177 L 0 0 Z" stroke-linecap="round" />
</g>
<g transform="matrix(1.9 0 0 -1.9 486.45 67.35)" clip-path="url(#CLIPPATH_25)"  >
<clipPath id="CLIPPATH_25" >
	<path transform="matrix(0.13 0 0 -0.13 -31.5 -89.27) translate(-1687.5, -960.94)" d="M 0 0 L 3375 0 L 3375 1921.875 L 0 1921.875 Z" stroke-linecap="round" />
</clipPath>
<path style="stroke: none; stroke-width: 1; stroke-dasharray: none; stroke-linecap: butt; stroke-dashoffset: 0; stroke-linejoin: miter; stroke-miterlimit: 4; fill: rgb(255,255,255); fill-rule: nonzero; opacity: 1;" vector-effect="non-scaling-stroke"  transform=" translate(-323.31, -717.44)" d="M 326.148 689.276 L 320.46403 689.276 L 320.46403 745.606 L 326.148 745.606 L 326.148 689.276 Z" stroke-linecap="round" />
</g>
<g transform="matrix(1.9 0 0 -1.9 444.17 67.3)" clip-path="url(#CLIPPATH_26)"  >
<clipPath id="CLIPPATH_26" >
	<path transform="matrix(0.13 0 0 -0.13 -9.25 -89.3) translate(-1687.5, -960.94)" d="M 0 0 L 3375 0 L 3375 1921.875 L 0 1921.875 Z" stroke-linecap="round" />
</clipPath>
<path style="stroke: none; stroke-width: 1; stroke-dasharray: none; stroke-linecap: butt; stroke-dashoffset: 0; stroke-linejoin: miter; stroke-miterlimit: 4; fill: rgb(255,255,255); fill-rule: nonzero; opacity: 1;" vector-effect="non-scaling-stroke"  transform=" translate(-301.06, -717.47)" d="M 303.893 689.303 L 298.21803 689.303 L 298.21803 745.636 L 303.893 745.636 L 303.893 689.303 Z" stroke-linecap="round" />
</g>
<g transform="matrix(1.9 0 0 -1.9 465.3 67.3)" clip-path="url(#CLIPPATH_27)"  >
<clipPath id="CLIPPATH_27" >
	<path transform="matrix(0.13 0 0 -0.13 -20.38 -89.3) translate(-1687.5, -960.94)" d="M 0 0 L 3375 0 L 3375 1921.875 L 0 1921.875 Z" stroke-linecap="round" />
</clipPath>
<path style="stroke: none; stroke-width: 1; stroke-dasharray: none; stroke-linecap: butt; stroke-dashoffset: 0; stroke-linejoin: miter; stroke-miterlimit: 4; fill: rgb(255,255,255); fill-rule: nonzero; opacity: 1;" vector-effect="non-scaling-stroke"  transform=" translate(-312.18, -717.47)" d="M 315.021 689.303 L 309.33399 689.303 L 309.33399 745.636 L 315.021 745.636 L 315.021 689.303 Z" stroke-linecap="round" />
</g>
</svg>