<svg width="16" height="17" viewBox="0 0 16 17" fill="none" xmlns="http://www.w3.org/2000/svg">
<path d="M0 6.05263C0 4.46441 -4.76837e-08 3.67115 0.4688 3.17768C0.9376 2.6842 1.6912 2.6842 3.2 2.6842H12.8C14.3088 2.6842 15.0624 2.6842 15.5312 3.17768C16 3.67115 16 4.46441 16 6.05263C16 6.44926 16 6.64799 15.8832 6.77178C15.7656 6.89473 15.576 6.89473 15.2 6.89473H0.8C0.4232 6.89473 0.2344 6.89473 0.1168 6.77178C-7.15256e-08 6.64799 0 6.44841 0 6.05263ZM0 13.6316C0 15.2198 -4.76837e-08 16.013 0.4688 16.5065C0.9376 17 1.6912 17 3.2 17H12.8C14.3088 17 15.0624 17 15.5312 16.5065C16 16.013 16 15.2198 16 13.6316V9.42105C16 9.02441 16 8.82568 15.8832 8.70189C15.7656 8.57894 15.576 8.57894 15.2 8.57894H0.8C0.4232 8.57894 0.2344 8.57894 0.1168 8.70189C-7.15256e-08 8.82568 0 9.02526 0 9.42105V13.6316Z" fill="#72207B"/>
<path d="M4 1V3.52632M12 1V3.52632" stroke="#72207B" stroke-width="2" stroke-linecap="round"/>
</svg>
