<svg viewBox="0 0 281 295" fill="none" xmlns="http://www.w3.org/2000/svg">
<g clip-path="url(#clip0_325_622)">
<path d="M153.383 290.211L160.196 290.21L163.438 264.094L153.381 264.094L153.383 290.211Z" fill="#A0616A"/>
<path d="M176.727 290.057C176.939 290.412 177.051 291.558 177.051 291.971C177.051 293.24 176.015 294.269 174.738 294.269H153.638C152.766 294.269 152.06 293.567 152.06 292.702V291.829C152.06 291.829 151.016 289.205 153.165 285.971C153.165 285.971 155.836 288.503 159.827 284.537L161.004 282.418L169.524 288.61L174.246 289.187C175.279 289.314 176.195 289.168 176.727 290.057Z" fill="#020202"/>
<path d="M183.911 290.211L190.725 290.21L193.966 264.094L183.91 264.094L183.911 290.211Z" fill="#A0616A"/>
<path d="M207.255 290.057C207.467 290.412 207.579 291.558 207.579 291.971C207.579 293.24 206.544 294.269 205.267 294.269H184.166C183.295 294.269 182.588 293.567 182.588 292.702V291.829C182.588 291.829 181.544 289.205 183.693 285.971C183.693 285.971 186.364 288.503 190.356 284.537L191.533 282.418L200.052 288.61L204.774 289.187C205.808 289.314 206.724 289.168 207.255 290.057Z" fill="#020202"/>
<path d="M152.798 126.362L146.454 142.516L151.41 271.548H165.287L177.776 155.123L180.749 271.942L194.229 271.548L208.898 141.925L199.185 130.302L152.798 126.362Z" fill="#020202"/>
<path d="M182.731 34.7591L166.08 33.5771L160.926 41.851L145.463 46.1849L151.212 86.175L145.067 145.865C145.067 145.865 167.269 142.713 168.855 149.017C170.441 155.32 209.295 142.713 209.295 142.713L196.013 101.935L197.203 70.0214L200.771 51.5038L184.516 44.0179L182.731 34.7591Z" fill="#E6E6E6"/>
<path d="M190.264 46.5788C190.264 46.5788 203.533 46.3818 205.324 51.8976C207.114 57.4135 213.061 95.6307 213.061 95.6307L217.621 112.375L197.202 102.329L201.564 95.6415L187.291 68.4453L190.264 46.5788Z" fill="#E6E6E6"/>
<path d="M182.146 107.844C179.952 107.847 177.913 106.59 177.06 104.581C176.415 103.062 176.475 101.605 176.958 100.355C176.803 100.291 176.649 100.224 176.49 100.168C176.723 100.074 176.95 99.9675 177.177 99.8611C177.968 98.2957 179.483 97.1597 181.288 96.8838C183.523 94.5041 184.897 91.3155 184.912 87.8063C184.941 80.5738 179.037 74.5326 171.761 74.3591C171.704 74.3577 171.647 74.3567 171.59 74.356C168.332 74.3187 165.376 76.1299 163.725 78.9215C162.762 80.5505 160.982 81.644 158.943 81.644C157.382 81.644 155.973 81.0026 154.967 79.9708C152.773 77.723 150.027 76.0504 146.918 75.5373C144.877 75.2003 142.765 75.0732 140.603 75.18C125.807 75.9109 113.077 88.9427 112.761 103.661C112.409 120.055 125.676 133.454 142.093 133.454C150.635 133.454 158.321 129.824 163.681 124.033C166.061 121.462 169.395 120.022 172.91 120.058C172.946 120.058 172.982 120.058 173.018 120.058C178.711 120.058 183.326 115.472 183.326 109.814C183.326 109.501 183.31 109.191 183.281 108.885C183.226 108.313 182.725 107.844 182.146 107.844Z" fill="#FFD700"/>
<path d="M133.371 99.1768L232.092 80.6592L232.488 87.751L134.56 110.997L133.371 99.1768Z" fill="#FFD700"/>
<path d="M230.902 81.8411L232.092 80.6592C232.092 80.6592 237.246 78.2952 237.246 77.9012C237.246 77.6546 244.857 75.0928 250.551 73.2105C253.731 72.1593 257.089 74.2395 257.542 77.5394L258.256 82.7395C258.682 85.8488 256.322 88.6475 253.166 88.7729L239.228 89.327L232.488 87.751L230.902 81.8411Z" fill="#FFD700"/>
<path d="M133.569 101.344L133.334 100.362L232.118 81.5947L232.29 82.826L133.569 101.344Z" fill="#3F3D56"/>
<path d="M133.795 103.207L133.569 102.132L232.225 83.5374L232.29 84.7959L133.795 103.207Z" fill="#3F3D56"/>
<path d="M134.022 105.441L133.966 103.708L232.303 84.9519L232.29 85.9781L134.022 105.441Z" fill="#3F3D56"/>
<path d="M134.285 108.035L134.362 106.465L232.446 86.3657L232.53 86.7505L134.285 108.035Z" fill="#3F3D56"/>
<path d="M134.287 109.608L134.362 108.436L232.298 87.0161L232.386 87.4001L134.287 109.608Z" fill="#3F3D56"/>
<path d="M191.014 44.0667L186.101 41.3638L183.971 84.5989L184.714 89.9178C184.714 89.9178 197.115 55.9354 191.014 44.0667Z" fill="#3F3D56"/>
<path d="M174.207 30.622C167.419 30.622 161.916 25.1538 161.916 18.4083C161.916 11.6629 167.419 6.19458 174.207 6.19458C180.995 6.19458 186.498 11.6629 186.498 18.4083C186.498 25.1538 180.995 30.622 174.207 30.622Z" fill="#A0616A"/>
<path d="M184.714 25.6973L181.775 28.0282L185.11 15.4535C185.11 15.4535 175.793 15.2565 175 10.1346C175 10.1346 167.666 9.9376 165.683 9.9376C163.701 9.9376 162.806 22.9725 162.806 22.9725C162.806 22.9725 158.943 12.3016 162.908 6.78567C166.873 1.26979 165.485 4.61872 166.278 2.64876C167.071 0.678807 175.198 -1.13293 180.353 0.875801C185.507 2.88454 185.705 5.74796 187.291 5.77432C188.877 5.80069 194.427 13.6805 189.273 19.9844C184.119 26.2882 184.714 25.6973 184.714 25.6973Z" fill="#020202"/>
<path d="M147.165 105.846C145.708 104.691 144.635 103.305 144.03 101.935L129.453 91.802L134.508 85.05L148.75 96.0557C150.229 96.3377 151.828 97.0701 153.284 98.2252C156.612 100.864 157.94 104.709 156.251 106.814C154.561 108.918 150.493 108.485 147.165 105.846Z" fill="#A0616A"/>
<path d="M203.013 90.4334C204.094 91.9421 204.742 93.5683 204.944 95.051L216.155 108.777L209.427 113.887L198.779 99.4134C197.435 98.7381 196.101 97.5971 195.02 96.0885C192.551 92.6419 192.338 88.5819 194.545 87.0203C196.752 85.4587 200.543 86.9868 203.013 90.4334Z" fill="#A0616A"/>
<path d="M151.807 48.7457C151.807 48.7457 148.239 42.8359 144.67 46.3818C141.847 49.1877 126.362 67.0423 120.022 74.3726C118.274 76.394 117.314 78.9696 117.314 81.6352C117.314 85.7583 119.605 89.5445 123.269 91.4781L143.085 101.935L148.635 93.6608L131.587 81.447L157.754 67.2633L151.807 48.7457Z" fill="#E6E6E6"/>
<path d="M214.464 103.207L217.621 112.375L208.502 117.103L201.564 112.375L197.202 102.329L210.088 98.5857" fill="#E6E6E6"/>
<path d="M7.50002 294C7.50002 294.552 7.75722 295 8.0745 295H279.5V293H8.07448C7.7572 293 7.50002 293.448 7.50002 294Z" fill="#E6E6E6"/>
<path d="M2.36308 217.269C3.08324 216.062 6.19881 217.354 6.77159 216.259C7.34234 215.168 4.4476 213.505 2.79381 209.707C2.49557 209.022 0.616159 204.706 2.0075 203.374C4.64469 200.849 16.7126 211.268 20.9359 207.858C21.8627 207.11 22.5102 205.616 25.3154 203.191C26.4313 202.226 27.1061 201.791 27.7592 201.953C28.6858 202.183 28.7593 203.415 29.7529 205.838C31.243 209.473 32.1244 209.253 32.9927 212.153C33.6372 214.305 33.49 215.556 34.2484 215.8C35.3217 216.145 36.3096 213.862 37.6697 214.067C39.0577 214.275 39.8968 216.933 40.1619 218.924C40.6592 222.658 39.279 225.123 38.5141 227.714C37.6827 230.53 37.1893 234.813 39.1092 240.876L58.1113 294.08C53.9163 283.163 41.7695 253.236 36.6654 242.115C35.192 238.904 33.5651 235.648 30.2245 234.363C27.0084 233.125 22.5914 233.864 16.9604 232.516C16.3027 232.358 14.4777 231.897 14.248 230.83C14.0581 229.948 15.1316 229.456 14.9666 228.63C14.7454 227.522 12.6345 227.509 10.0404 226.231C8.2112 225.329 7.07162 224.257 6.09164 223.336C5.79618 223.058 1.40438 218.875 2.36308 217.269Z" fill="white"/>
<path d="M77.1229 245.278C77.9267 245.281 78.1875 247.173 78.8937 247.137C79.5973 247.1 79.5833 245.209 80.9821 243.306C81.2343 242.963 82.8239 240.801 83.8832 241.095C85.891 241.653 84.2274 250.545 87.1298 251.621C87.7668 251.857 88.6913 251.742 90.6984 252.411C91.4969 252.677 91.9067 252.88 92.0151 253.245C92.1689 253.764 91.5814 254.155 90.6713 255.339C89.3064 257.114 89.6691 257.481 88.4876 258.741C87.6105 259.676 86.95 259.966 87.0484 260.406C87.1876 261.029 88.6003 260.852 88.8918 261.574C89.1892 262.312 88.1185 263.488 87.212 264.191C85.5109 265.512 83.8954 265.549 82.3948 265.924C80.7641 266.331 78.5064 267.326 76.0659 270.012L55.2715 294.631C59.4531 289.435 70.7292 274.876 74.7492 269.177C75.9097 267.532 77.0486 265.799 76.7195 263.799C76.4027 261.873 74.7634 259.932 73.8044 256.797C73.6924 256.431 73.3937 255.407 73.8543 254.988C74.2351 254.641 74.7879 255.022 75.1483 254.703C75.6316 254.276 75.0292 253.242 74.9121 251.608C74.8295 250.456 75.03 249.591 75.2025 248.847C75.2545 248.623 76.0529 245.274 77.1229 245.278Z" fill="white"/>
<path d="M61.087 248.855L61.5713 244.559L61.35 244.233C60.3261 242.727 59.8043 241.257 59.798 239.861C59.797 239.639 59.8074 239.417 59.8178 239.191C59.8596 238.294 59.9118 237.181 59.3273 235.882C58.9996 235.158 58.079 233.482 56.695 233.689C56.3224 233.741 56.0407 233.911 55.8267 234.11C55.7954 234.061 55.763 234.011 55.7286 233.957C55.2975 233.303 54.9562 233.023 54.6275 232.754C54.3749 232.546 54.1139 232.333 53.7048 231.827C53.5253 231.605 53.3854 231.41 53.2675 231.246C52.9095 230.75 52.4419 230.159 51.6174 230.169C50.7365 230.211 50.2752 230.935 49.9693 231.414C49.4235 232.268 49.1761 232.884 49.0123 233.293C48.9528 233.442 48.8849 233.61 48.8505 233.662C48.5666 234.077 46.2589 233.689 45.3895 233.548C43.4367 233.225 41.7469 232.945 41.0508 234.168C40.5519 235.044 40.9224 236.201 42.1853 237.701C42.5788 238.168 42.9973 238.523 43.3689 238.801C43.061 238.983 42.7854 239.263 42.6738 239.703C42.4107 240.744 43.3115 241.788 45.3499 242.808C45.8561 243.063 46.5376 243.404 47.4926 243.568C47.9424 243.644 48.3474 243.663 48.6939 243.673C48.7012 243.872 48.7482 244.088 48.8703 244.31C49.2283 244.964 49.9735 245.275 51.0966 245.2C52.3323 245.136 53.3499 244.901 54.2475 244.696C55.0314 244.518 55.7067 244.366 56.2369 244.401C57.22 244.48 57.9778 245.262 58.867 246.277L61.087 248.855Z" fill="white"/>
<path d="M58.8407 223.276L62.8996 224.832L63.2727 224.701C64.9984 224.099 66.5623 223.971 67.9228 224.319C68.1391 224.374 68.3525 224.44 68.57 224.508C69.4316 224.775 70.5027 225.108 71.915 224.875C72.7028 224.744 74.5678 224.284 74.7169 222.901C74.7609 222.53 74.6668 222.216 74.5273 221.96C74.5837 221.942 74.6403 221.924 74.7016 221.904C75.4469 221.656 75.8061 221.399 76.152 221.151C76.418 220.961 76.6921 220.764 77.2886 220.499C77.5502 220.383 77.7754 220.298 77.9649 220.226C78.5383 220.008 79.2323 219.709 79.4314 218.913C79.6144 218.056 79.0267 217.429 78.6379 217.013C77.9444 216.272 77.4075 215.878 77.0513 215.617C76.921 215.522 76.7747 215.414 76.7329 215.368C76.4011 214.989 77.364 212.87 77.7218 212.07C78.5321 210.275 79.2334 208.721 78.2186 207.742C77.4931 207.04 76.2724 207.103 74.4922 207.936C73.9381 208.196 73.4867 208.508 73.1218 208.795C73.0223 208.453 72.8196 208.117 72.4198 207.898C71.4729 207.381 70.2288 207.982 68.7183 209.683C68.3416 210.105 67.8376 210.673 67.4358 211.55C67.247 211.963 67.1261 212.347 67.0281 212.678C66.8324 212.634 66.6105 212.625 66.3635 212.686C65.6366 212.864 65.1447 213.502 64.9326 214.6C64.6817 215.804 64.6518 216.842 64.624 217.757C64.5988 218.556 64.5749 219.243 64.4061 219.744C64.08 220.669 63.1266 221.199 61.9137 221.796L58.8407 223.276Z" fill="white"/>
<path d="M61.087 210.62L61.5713 206.324L61.35 205.998C60.3261 204.492 59.8043 203.022 59.798 201.625C59.797 201.404 59.8074 201.182 59.8178 200.955C59.8596 200.059 59.9118 198.945 59.3273 197.647C58.9996 196.923 58.079 195.247 56.695 195.454C56.3224 195.506 56.0407 195.676 55.8267 195.875C55.7954 195.826 55.763 195.776 55.7286 195.722C55.2975 195.068 54.9562 194.788 54.6275 194.519C54.3749 194.311 54.1139 194.098 53.7048 193.591C53.5253 193.369 53.3854 193.174 53.2675 193.011C52.9095 192.515 52.4419 191.924 51.6174 191.934C50.7365 191.975 50.2752 192.699 49.9693 193.179C49.4235 194.033 49.1761 194.649 49.0123 195.058C48.9528 195.207 48.8849 195.375 48.8505 195.427C48.5666 195.842 46.2589 195.454 45.3895 195.313C43.4367 194.99 41.7469 194.71 41.0508 195.933C40.5519 196.809 40.9224 197.966 42.1853 199.466C42.5788 199.933 42.9973 200.288 43.3689 200.565C43.061 200.748 42.7854 201.028 42.6738 201.468C42.4107 202.509 43.3115 203.553 45.3499 204.573C45.8561 204.828 46.5376 205.169 47.4926 205.332C47.9424 205.409 48.3474 205.428 48.6939 205.438C48.7012 205.637 48.7482 205.853 48.8703 206.075C49.2283 206.728 49.9735 207.04 51.0966 206.965C52.3323 206.901 53.3499 206.666 54.2475 206.461C55.0314 206.282 55.7067 206.131 56.2369 206.166C57.22 206.245 57.9778 207.027 58.867 208.042L61.087 210.62Z" fill="white"/>
<path d="M56.6638 294.01L57.5698 293.446L58.626 293.566C58.6427 293.469 58.7001 293.245 58.7867 292.894C59.2595 290.973 60.7009 285.128 61.9033 275.922C62.7424 269.495 63.2173 262.888 63.3154 256.281C63.4135 249.664 63.0983 244.654 62.8457 240.628C62.6547 237.591 62.423 234.699 62.1955 231.882C61.5902 224.357 61.0192 217.248 61.444 209.377C61.538 207.62 61.7352 203.963 63.8853 200.072C65.1325 197.815 66.8505 195.811 68.9922 194.118L67.6604 192.455C65.2964 194.326 63.3958 196.545 62.0108 199.051C59.6269 203.366 59.4119 207.351 59.3086 209.265C58.8765 217.275 59.4537 224.452 60.0653 232.05C60.2907 234.857 60.5224 237.736 60.7124 240.761C60.9629 244.75 61.275 249.716 61.1779 256.248C61.0819 262.776 60.6122 269.302 59.7845 275.648C58.5968 284.738 57.1763 290.496 56.7097 292.388C56.4613 293.398 56.4091 293.61 56.6638 294.01Z" fill="white"/>
<path d="M72.9125 197.493C73.0001 197.493 73.0889 197.491 73.1786 197.485C74.9989 197.388 76.6845 196.305 78.1895 194.268C78.8951 193.309 79.2562 192.216 79.9764 190.036C80.088 189.7 80.6308 187.995 80.9606 185.649C81.1766 184.116 81.1495 183.475 80.8437 182.908C80.5045 182.278 79.9555 181.838 79.3376 181.541C79.3647 181.338 79.3428 181.129 79.2541 180.915C78.8898 180.029 77.9213 180.145 77.3973 180.201C77.1322 180.235 76.8014 180.278 76.4444 180.259C75.8829 180.232 75.5813 180.066 75.1241 179.818C74.6868 179.579 74.143 179.282 73.3362 179.118C71.7456 178.789 70.4128 179.237 69.9734 179.384C67.6615 180.149 66.5218 181.935 65.2025 184.004C64.9395 184.419 64.0367 185.929 63.4407 187.999C63.0107 189.492 63.0713 190.156 63.2007 190.65C63.4637 191.664 64.0847 192.245 65.6618 193.527C67.3087 194.869 68.1354 195.541 68.8451 195.95C70.4973 196.898 71.5348 197.493 72.9125 197.493Z" fill="white"/>
</g>
<defs>
<clipPath id="clip0_325_622">
<rect width="281" height="295" fill="white"/>
</clipPath>
</defs>
</svg>
