<svg viewBox="0 0 257 295" fill="none" xmlns="http://www.w3.org/2000/svg">
<g clip-path="url(#clip0_325_622)">
<path d="M152.383 290.211L159.196 290.21L162.438 264.094L152.381 264.094L152.383 290.211Z" fill="#A0616A"/>
<path d="M175.727 290.057C175.939 290.412 176.051 291.558 176.051 291.971C176.051 293.24 175.015 294.269 173.738 294.269H152.638C151.766 294.269 151.06 293.567 151.06 292.702V291.829C151.06 291.829 150.016 289.205 152.165 285.971C152.165 285.971 154.836 288.503 158.827 284.537L160.004 282.418L168.524 288.61L173.246 289.187C174.279 289.314 175.195 289.168 175.727 290.057Z" fill="#020202"/>
<path d="M182.911 290.211L189.725 290.21L192.966 264.094L182.91 264.094L182.911 290.211Z" fill="#A0616A"/>
<path d="M206.255 290.057C206.467 290.412 206.579 291.558 206.579 291.971C206.579 293.24 205.544 294.269 204.267 294.269H183.166C182.295 294.269 181.588 293.567 181.588 292.702V291.829C181.588 291.829 180.544 289.205 182.693 285.971C182.693 285.971 185.364 288.503 189.356 284.537L190.533 282.418L199.052 288.61L203.774 289.187C204.808 289.314 205.724 289.168 206.255 290.057Z" fill="#020202"/>
<path d="M151.798 126.362L145.454 142.516L150.41 271.548H164.287L176.776 155.123L179.749 271.942L193.229 271.548L207.898 141.925L198.185 130.302L151.798 126.362Z" fill="#020202"/>
<path d="M181.731 34.7591L165.08 33.5771L159.926 41.851L144.463 46.1849L150.212 86.175L144.067 145.865C144.067 145.865 166.269 142.713 167.855 149.017C169.441 155.32 208.295 142.713 208.295 142.713L195.013 101.935L196.203 70.0214L199.771 51.5038L183.516 44.0179L181.731 34.7591Z" fill="#F3F3F3"/>
<path d="M189.264 46.5788C189.264 46.5788 202.533 46.3818 204.324 51.8976C206.114 57.4135 212.061 95.6307 212.061 95.6307L216.621 112.375L196.202 102.329L200.564 95.6415L186.291 68.4453L189.264 46.5788Z" fill="#F3F3F3"/>
<path d="M181.146 107.844C178.952 107.847 176.913 106.59 176.06 104.581C175.415 103.062 175.475 101.605 175.958 100.355C175.803 100.291 175.649 100.224 175.49 100.168C175.723 100.074 175.95 99.9675 176.177 99.8611C176.968 98.2957 178.483 97.1597 180.288 96.8838C182.523 94.5041 183.897 91.3155 183.912 87.8063C183.941 80.5738 178.037 74.5326 170.761 74.3591C170.704 74.3577 170.647 74.3567 170.59 74.356C167.332 74.3187 164.376 76.1299 162.725 78.9215C161.762 80.5505 159.982 81.644 157.943 81.644C156.382 81.644 154.973 81.0026 153.967 79.9708C151.773 77.723 149.027 76.0504 145.918 75.5373C143.877 75.2003 141.765 75.0732 139.603 75.18C124.807 75.9109 112.077 88.9427 111.761 103.661C111.409 120.055 124.676 133.454 141.093 133.454C149.635 133.454 157.321 129.824 162.681 124.033C165.061 121.462 168.395 120.022 171.91 120.058C171.946 120.058 171.982 120.058 172.018 120.058C177.711 120.058 182.326 115.472 182.326 109.814C182.326 109.501 182.31 109.191 182.281 108.885C182.226 108.313 181.725 107.844 181.146 107.844Z" fill="#FFD700"/>
<path d="M132.371 99.1768L231.092 80.6592L231.488 87.751L133.56 110.997L132.371 99.1768Z" fill="#FFD700"/>
<path d="M229.902 81.8411L231.092 80.6592C231.092 80.6592 236.246 78.2952 236.246 77.9012C236.246 77.6546 243.857 75.0928 249.551 73.2105C252.731 72.1593 256.089 74.2395 256.542 77.5394L257.256 82.7395C257.682 85.8488 255.322 88.6475 252.166 88.7729L238.228 89.327L231.488 87.751L229.902 81.8411Z" fill="#FFD700"/>
<path d="M132.569 101.344L132.334 100.362L231.118 81.5947L231.29 82.826L132.569 101.344Z" fill="#3F3D56"/>
<path d="M132.795 103.207L132.569 102.132L231.225 83.5374L231.29 84.7959L132.795 103.207Z" fill="#3F3D56"/>
<path d="M133.022 105.441L132.966 103.708L231.303 84.9519L231.29 85.9781L133.022 105.441Z" fill="#3F3D56"/>
<path d="M133.285 108.035L133.362 106.465L231.446 86.3657L231.53 86.7505L133.285 108.035Z" fill="#3F3D56"/>
<path d="M133.287 109.608L133.362 108.436L231.298 87.0161L231.386 87.4001L133.287 109.608Z" fill="#3F3D56"/>
<path d="M190.014 44.0667L185.101 41.3638L182.971 84.5989L183.714 89.9178C183.714 89.9178 196.115 55.9354 190.014 44.0667Z" fill="#3F3D56"/>
<path d="M173.207 30.622C166.419 30.622 160.916 25.1538 160.916 18.4083C160.916 11.6629 166.419 6.19458 173.207 6.19458C179.995 6.19458 185.498 11.6629 185.498 18.4083C185.498 25.1538 179.995 30.622 173.207 30.622Z" fill="#A0616A"/>
<path d="M183.714 25.6973L180.775 28.0282L184.11 15.4535C184.11 15.4535 174.793 15.2565 174 10.1346C174 10.1346 166.666 9.9376 164.683 9.9376C162.701 9.9376 161.806 22.9725 161.806 22.9725C161.806 22.9725 157.943 12.3016 161.908 6.78567C165.873 1.26979 164.485 4.61872 165.278 2.64876C166.071 0.678807 174.198 -1.13293 179.353 0.875801C184.507 2.88454 184.705 5.74796 186.291 5.77432C187.877 5.80069 193.427 13.6805 188.273 19.9844C183.119 26.2882 183.714 25.6973 183.714 25.6973Z" fill="#020202"/>
<path d="M146.165 105.846C144.708 104.691 143.635 103.305 143.03 101.935L128.453 91.802L133.508 85.05L147.75 96.0557C149.229 96.3377 150.828 97.0701 152.284 98.2252C155.612 100.864 156.94 104.709 155.251 106.814C153.561 108.918 149.493 108.485 146.165 105.846Z" fill="#A0616A"/>
<path d="M202.013 90.4334C203.094 91.9421 203.742 93.5683 203.944 95.051L215.155 108.777L208.427 113.887L197.779 99.4134C196.435 98.7381 195.101 97.5971 194.02 96.0885C191.551 92.6419 191.338 88.5819 193.545 87.0203C195.752 85.4587 199.543 86.9868 202.013 90.4334Z" fill="#A0616A"/>
<path d="M150.807 48.7457C150.807 48.7457 147.239 42.8359 143.67 46.3818C140.847 49.1877 125.362 67.0423 119.022 74.3726C117.274 76.394 116.314 78.9696 116.314 81.6352C116.314 85.7583 118.605 89.5445 122.269 91.4781L142.085 101.935L147.635 93.6608L130.587 81.447L156.754 67.2633L150.807 48.7457Z" fill="#F3F3F3"/>
<path d="M213.464 103.207L216.621 112.375L207.502 117.103L200.564 112.375L196.202 102.329L209.088 98.5857" fill="#F3F3F3"/>
<path d="M1.36308 217.269C2.08324 216.062 5.19881 217.354 5.77159 216.259C6.34234 215.168 3.4476 213.505 1.79381 209.707C1.49557 209.022 -0.383841 204.706 1.0075 203.374C3.64469 200.849 15.7126 211.268 19.9359 207.858C20.8627 207.11 21.5102 205.616 24.3154 203.191C25.4313 202.226 26.1061 201.791 26.7592 201.953C27.6858 202.183 27.7593 203.415 28.7529 205.838C30.243 209.473 31.1244 209.253 31.9927 212.153C32.6372 214.305 32.49 215.556 33.2484 215.8C34.3217 216.145 35.3096 213.862 36.6697 214.067C38.0577 214.275 38.8968 216.933 39.1619 218.924C39.6592 222.658 38.279 225.123 37.5141 227.714C36.6827 230.53 36.1893 234.813 38.1092 240.876L57.1113 294.08C52.9163 283.163 40.7695 253.236 35.6654 242.115C34.192 238.904 32.5651 235.648 29.2245 234.363C26.0084 233.125 21.5914 233.864 15.9604 232.516C15.3027 232.358 13.4777 231.897 13.248 230.83C13.0581 229.948 14.1316 229.456 13.9666 228.63C13.7454 227.522 11.6345 227.509 9.04038 226.231C7.2112 225.329 6.07162 224.257 5.09164 223.336C4.79618 223.058 0.404383 218.875 1.36308 217.269Z" fill="white"/>
<path d="M76.1229 245.278C76.9267 245.281 77.1875 247.173 77.8937 247.137C78.5973 247.1 78.5833 245.209 79.9821 243.306C80.2343 242.963 81.8239 240.801 82.8832 241.095C84.891 241.653 83.2274 250.545 86.1298 251.621C86.7668 251.857 87.6913 251.742 89.6984 252.411C90.4969 252.677 90.9067 252.88 91.0151 253.245C91.1689 253.764 90.5814 254.155 89.6713 255.339C88.3064 257.114 88.6691 257.481 87.4876 258.741C86.6105 259.676 85.95 259.966 86.0484 260.406C86.1876 261.029 87.6003 260.852 87.8918 261.574C88.1892 262.312 87.1185 263.488 86.212 264.191C84.5109 265.512 82.8954 265.549 81.3948 265.924C79.7641 266.331 77.5064 267.326 75.0659 270.012L54.2715 294.631C58.4531 289.435 69.7292 274.876 73.7492 269.177C74.9097 267.532 76.0486 265.799 75.7195 263.799C75.4027 261.873 73.7634 259.932 72.8044 256.797C72.6924 256.431 72.3937 255.407 72.8543 254.988C73.2351 254.641 73.7879 255.022 74.1483 254.703C74.6316 254.276 74.0292 253.242 73.9121 251.608C73.8295 250.456 74.03 249.591 74.2025 248.847C74.2545 248.623 75.0529 245.274 76.1229 245.278Z" fill="white"/>
<path d="M60.087 248.855L60.5713 244.559L60.35 244.233C59.3261 242.727 58.8043 241.257 58.798 239.861C58.797 239.639 58.8074 239.417 58.8178 239.191C58.8596 238.294 58.9118 237.181 58.3273 235.882C57.9996 235.158 57.079 233.482 55.695 233.689C55.3224 233.741 55.0407 233.911 54.8267 234.11C54.7954 234.061 54.763 234.011 54.7286 233.957C54.2975 233.303 53.9562 233.023 53.6275 232.754C53.3749 232.546 53.1139 232.333 52.7048 231.827C52.5253 231.605 52.3854 231.41 52.2675 231.246C51.9095 230.75 51.4419 230.159 50.6174 230.169C49.7365 230.211 49.2752 230.935 48.9693 231.414C48.4235 232.268 48.1761 232.884 48.0123 233.293C47.9528 233.442 47.8849 233.61 47.8505 233.662C47.5666 234.077 45.2589 233.689 44.3895 233.548C42.4367 233.225 40.7469 232.945 40.0508 234.168C39.5519 235.044 39.9224 236.201 41.1853 237.701C41.5788 238.168 41.9973 238.523 42.3689 238.801C42.061 238.983 41.7854 239.263 41.6738 239.703C41.4107 240.744 42.3115 241.788 44.3499 242.808C44.8561 243.063 45.5376 243.404 46.4926 243.568C46.9424 243.644 47.3474 243.663 47.6939 243.673C47.7012 243.872 47.7482 244.088 47.8703 244.31C48.2283 244.964 48.9735 245.275 50.0966 245.2C51.3323 245.136 52.3499 244.901 53.2475 244.696C54.0314 244.518 54.7067 244.366 55.2369 244.401C56.22 244.48 56.9778 245.262 57.867 246.277L60.087 248.855Z" fill="white"/>
<path d="M57.8407 223.276L61.8996 224.832L62.2727 224.701C63.9984 224.099 65.5623 223.971 66.9228 224.319C67.1391 224.374 67.3525 224.44 67.57 224.508C68.4316 224.775 69.5027 225.108 70.915 224.875C71.7028 224.744 73.5678 224.284 73.7169 222.901C73.7609 222.53 73.6668 222.216 73.5273 221.96C73.5837 221.942 73.6403 221.924 73.7016 221.904C74.4469 221.656 74.8061 221.399 75.152 221.151C75.418 220.961 75.6921 220.764 76.2886 220.499C76.5502 220.383 76.7754 220.298 76.9649 220.226C77.5383 220.008 78.2323 219.709 78.4314 218.913C78.6144 218.056 78.0267 217.429 77.6379 217.013C76.9444 216.272 76.4075 215.878 76.0513 215.617C75.921 215.522 75.7747 215.414 75.7329 215.368C75.4011 214.989 76.364 212.87 76.7218 212.07C77.5321 210.275 78.2334 208.721 77.2186 207.742C76.4931 207.04 75.2724 207.103 73.4922 207.936C72.9381 208.196 72.4867 208.508 72.1218 208.795C72.0223 208.453 71.8196 208.117 71.4198 207.898C70.4729 207.381 69.2288 207.982 67.7183 209.683C67.3416 210.105 66.8376 210.673 66.4358 211.55C66.247 211.963 66.1261 212.347 66.0281 212.678C65.8324 212.634 65.6105 212.625 65.3635 212.686C64.6366 212.864 64.1447 213.502 63.9326 214.6C63.6817 215.804 63.6518 216.842 63.624 217.757C63.5988 218.556 63.5749 219.243 63.4061 219.744C63.08 220.669 62.1266 221.199 60.9137 221.796L57.8407 223.276Z" fill="white"/>
<path d="M60.087 210.62L60.5713 206.324L60.35 205.998C59.3261 204.492 58.8043 203.022 58.798 201.625C58.797 201.404 58.8074 201.182 58.8178 200.955C58.8596 200.059 58.9118 198.945 58.3273 197.647C57.9996 196.923 57.079 195.247 55.695 195.454C55.3224 195.506 55.0407 195.676 54.8267 195.875C54.7954 195.826 54.763 195.776 54.7286 195.722C54.2975 195.068 53.9562 194.788 53.6275 194.519C53.3749 194.311 53.1139 194.098 52.7048 193.591C52.5253 193.369 52.3854 193.174 52.2675 193.011C51.9095 192.515 51.4419 191.924 50.6174 191.934C49.7365 191.975 49.2752 192.699 48.9693 193.179C48.4235 194.033 48.1761 194.649 48.0123 195.058C47.9528 195.207 47.8849 195.375 47.8505 195.427C47.5666 195.842 45.2589 195.454 44.3895 195.313C42.4367 194.99 40.7469 194.71 40.0508 195.933C39.5519 196.809 39.9224 197.966 41.1853 199.466C41.5788 199.933 41.9973 200.288 42.3689 200.565C42.061 200.748 41.7854 201.028 41.6738 201.468C41.4107 202.509 42.3115 203.553 44.3499 204.573C44.8561 204.828 45.5376 205.169 46.4926 205.332C46.9424 205.409 47.3474 205.428 47.6939 205.438C47.7012 205.637 47.7482 205.853 47.8703 206.075C48.2283 206.728 48.9735 207.04 50.0966 206.965C51.3323 206.901 52.3499 206.666 53.2475 206.461C54.0314 206.282 54.7067 206.131 55.2369 206.166C56.22 206.245 56.9778 207.027 57.867 208.042L60.087 210.62Z" fill="white"/>
<path d="M55.6638 294.01L56.5698 293.446L57.626 293.566C57.6427 293.469 57.7001 293.245 57.7867 292.894C58.2595 290.973 59.7009 285.128 60.9033 275.922C61.7424 269.495 62.2173 262.888 62.3154 256.281C62.4135 249.664 62.0983 244.654 61.8457 240.628C61.6547 237.591 61.423 234.699 61.1955 231.882C60.5902 224.357 60.0192 217.248 60.444 209.377C60.538 207.62 60.7352 203.963 62.8853 200.072C64.1325 197.815 65.8505 195.811 67.9922 194.118L66.6604 192.455C64.2964 194.326 62.3958 196.545 61.0108 199.051C58.6269 203.366 58.4119 207.351 58.3086 209.265C57.8765 217.275 58.4537 224.452 59.0653 232.05C59.2907 234.857 59.5224 237.736 59.7124 240.761C59.9629 244.75 60.275 249.716 60.1779 256.248C60.0819 262.776 59.6122 269.302 58.7845 275.648C57.5968 284.738 56.1763 290.496 55.7097 292.388C55.4613 293.398 55.4091 293.61 55.6638 294.01Z" fill="white"/>
<path d="M71.9125 197.493C72.0001 197.493 72.0889 197.491 72.1786 197.485C73.9989 197.388 75.6845 196.305 77.1895 194.268C77.8951 193.309 78.2562 192.216 78.9764 190.036C79.088 189.7 79.6308 187.995 79.9606 185.649C80.1766 184.116 80.1495 183.475 79.8437 182.908C79.5045 182.278 78.9555 181.838 78.3376 181.541C78.3647 181.338 78.3428 181.129 78.2541 180.915C77.8898 180.029 76.9213 180.145 76.3973 180.201C76.1322 180.235 75.8014 180.278 75.4444 180.259C74.8829 180.232 74.5813 180.066 74.1241 179.818C73.6868 179.579 73.143 179.282 72.3362 179.118C70.7456 178.789 69.4128 179.237 68.9734 179.384C66.6615 180.149 65.5218 181.935 64.2025 184.004C63.9395 184.419 63.0367 185.929 62.4407 187.999C62.0107 189.492 62.0713 190.156 62.2007 190.65C62.4637 191.664 63.0847 192.245 64.6618 193.527C66.3087 194.869 67.1354 195.541 67.8451 195.95C69.4973 196.898 70.5348 197.493 71.9125 197.493Z" fill="white"/>
</g>
<defs>
<clipPath id="clip0_325_622">
<rect width="257" height="295" fill="white"/>
</clipPath>
</defs>
</svg>
