<svg viewBox="0 0 830 728" fill="none" xmlns="http://www.w3.org/2000/svg">
<g opacity="0.8">
<g opacity="0.8" clip-path="url(#clip0_247_341)">
<path d="M286.44 83.2052L326.3 115.718C323.609 117.021 321.128 119.332 319.417 122.428C315.726 129.104 317.003 136.876 322.268 139.786C327.534 142.697 334.794 139.644 338.484 132.969C341.76 127.044 341.118 120.261 337.252 116.775L337.255 116.776C337.247 116.768 337.233 116.757 337.223 116.748C337.124 116.66 337.022 116.574 336.919 116.491C332.812 113.044 301.37 87.1943 301.37 87.1943L323.401 50.6971L351.5 74.2689C348.652 75.5307 346.008 77.9181 344.211 81.1692C340.521 87.8452 341.797 95.6162 347.063 98.5272C352.329 101.438 359.589 98.3856 363.279 91.7093C366.625 85.6593 365.883 78.7143 361.795 75.2987L361.794 75.2941C359.971 73.7406 317.32 38.6046 315.813 37.363L286.44 83.2052Z" fill="#FFD700"/>
</g>
<g opacity="0.89" clip-path="url(#clip1_247_341)">
<path d="M95.0182 124.057L138.543 124.211C137.467 126.502 137.066 129.342 137.59 132.29C138.717 138.645 143.696 143.075 148.708 142.185C153.72 141.295 156.869 135.422 155.741 129.067C154.74 123.427 150.706 119.308 146.308 119.075L146.31 119.074C146.3 119.073 146.285 119.073 146.274 119.072C146.162 119.067 146.049 119.065 145.937 119.065C141.401 118.985 106.96 118.73 106.96 118.73L102.013 82.9984L133.042 83.5365C131.841 85.8826 131.374 88.8604 131.923 91.9552C133.052 98.3103 138.029 102.741 143.042 101.851C148.054 100.961 151.204 95.0877 150.075 88.7327C149.053 82.9726 144.867 78.8007 140.36 78.7314L140.357 78.7288C138.331 78.678 91.5745 78.285 89.9222 78.2712L95.0182 124.057Z" fill="#FFD700"/>
</g>
<g opacity="0.78" clip-path="url(#clip2_247_341)">
<path d="M674.899 62.5657L663.209 34.7519C664.962 34.8181 666.883 34.3047 668.622 33.1722C672.371 30.7315 673.85 26.3548 671.925 23.3976C669.999 20.4403 665.399 20.022 661.649 22.4628C658.322 24.6293 656.786 28.319 657.828 31.1887L657.827 31.1875C657.829 31.194 657.833 31.2035 657.836 31.2108C657.863 31.2836 657.892 31.3561 657.923 31.4278C659.1 34.3436 668.266 56.3887 668.266 56.3887L646.806 69.2233L638.745 49.2786C640.567 49.4092 642.594 48.9009 644.42 47.7121C648.169 45.2708 649.648 40.8948 647.722 37.9372C645.797 34.9801 641.197 34.5615 637.447 37.003C634.049 39.2149 632.52 43.0158 633.697 45.9104L633.696 45.9129C634.212 47.2194 646.626 77.1604 647.064 78.2184L674.899 62.5657Z" fill="#FFD700"/>
</g>
<g opacity="0.84" clip-path="url(#clip3_247_341)">
<path d="M33.514 274.929L27.9026 326.558C25.3189 324.995 21.9984 324.165 18.4357 324.419C10.7538 324.964 4.87527 330.32 5.30615 336.378C5.73714 342.437 12.3138 346.906 19.9954 346.36C26.813 345.876 32.204 341.602 33.0296 336.412L33.0308 336.415C33.0327 336.404 33.0346 336.386 33.0365 336.373C33.0571 336.241 33.073 336.107 33.0872 335.974C33.7475 330.601 38.3457 289.764 38.3457 289.764L81.3639 288.35L76.8554 325.103C74.2212 323.386 70.7459 322.46 67.0049 322.726C59.3229 323.272 53.4448 328.626 53.8757 334.686C54.3064 340.745 60.8831 345.214 68.565 344.667C75.5276 344.173 81.0003 339.726 81.6446 334.387L81.6481 334.384C81.961 331.986 88.259 276.551 88.4815 274.592L33.514 274.929Z" fill="#FFD700"/>
</g>
<g opacity="0.75" clip-path="url(#clip4_247_341)">
<path d="M528.366 164.77L582.088 160.261C581.008 163.204 580.82 166.752 581.784 170.332C583.862 178.052 590.483 182.982 596.572 181.342C602.661 179.703 605.912 172.116 603.834 164.397C601.99 157.545 596.567 152.898 591.115 153.085L591.118 153.083C591.105 153.084 591.087 153.085 591.073 153.086C590.935 153.091 590.795 153.101 590.656 153.113C585.051 153.504 542.526 156.908 542.526 156.908L532.564 113.351L570.91 110.666C569.682 113.69 569.426 117.415 570.438 121.174C572.517 128.894 579.137 133.824 585.226 132.184C591.315 130.545 594.567 122.958 592.488 115.238C590.605 108.241 584.99 103.545 579.421 103.946L579.417 103.943C576.912 104.099 519.175 108.662 517.135 108.823L528.366 164.77Z" fill="#FFD700"/>
</g>
<g opacity="0.75" clip-path="url(#clip5_247_341)">
<path d="M500.97 246.475L508.756 283.755C506.6 283.25 504.096 283.424 501.668 284.408C496.434 286.53 493.548 291.597 495.221 295.725C496.895 299.853 502.495 301.479 507.728 299.358C512.374 297.475 515.165 293.273 514.565 289.466L514.566 289.468C514.565 289.459 514.562 289.446 514.561 289.437C514.545 289.34 514.526 289.243 514.505 289.147C513.749 285.25 507.701 255.726 507.701 255.726L537.383 244.992L542.568 271.647C540.341 271.046 537.708 271.188 535.159 272.221C529.925 274.343 527.039 279.409 528.712 283.538C530.386 287.666 535.985 289.292 541.219 287.17C545.963 285.248 548.772 280.906 548.012 277.036L548.014 277.033C547.688 275.29 539.519 235.2 539.23 233.784L500.97 246.475Z" fill="#FFD700"/>
</g>
<g opacity="0.86" clip-path="url(#clip6_247_341)">
<path d="M247.467 474.664L294.175 490.932C292.172 492.995 290.69 495.899 290.162 499.259C289.023 506.505 292.733 513.107 298.447 514.005C304.162 514.903 309.718 509.758 310.857 502.512C311.868 496.082 309.058 490.164 304.418 488.286L304.421 488.285C304.411 488.281 304.395 488.276 304.383 488.271C304.265 488.224 304.144 488.18 304.024 488.138C299.18 486.375 262.269 473.359 262.269 473.359L270.173 433.136L303.313 445.194C301.155 447.27 299.551 450.297 298.997 453.826C297.858 461.071 301.567 467.673 307.282 468.571C312.997 469.47 318.553 464.324 319.691 457.078C320.725 450.512 317.771 444.48 312.954 442.739L312.952 442.735C310.794 441.931 260.701 424.21 258.931 423.584L247.467 474.664Z" fill="#FFD700"/>
</g>
<g opacity="0.75" clip-path="url(#clip7_247_341)">
<path d="M474.962 575.81L442.795 610.06C441.779 607.524 439.832 605.117 437.119 603.36C431.272 599.571 424.108 600.24 421.12 604.853C418.133 609.465 420.452 616.275 426.299 620.064C431.489 623.426 437.712 623.273 441.134 619.973L441.133 619.975C441.141 619.968 441.152 619.956 441.161 619.948C441.247 619.864 441.332 619.775 441.415 619.687C444.817 616.165 470.376 589.16 470.376 589.16L502.229 611.562L478.959 635.664C477.991 632.989 475.984 630.427 473.136 628.583C467.288 624.795 460.125 625.463 457.137 630.076C454.149 634.688 456.468 641.499 462.317 645.286C467.616 648.721 473.992 648.487 477.365 644.98L477.369 644.98C478.901 643.417 513.636 606.791 514.863 605.496L474.962 575.81Z" fill="#FFD700"/>
</g>
<g opacity="0.73" clip-path="url(#clip8_247_341)">
<path d="M700.084 480.276L747.331 494.905C745.401 497.036 744.022 499.989 743.612 503.366C742.725 510.647 746.664 517.116 752.406 517.814C758.149 518.512 763.522 513.176 764.408 505.895C765.194 499.434 762.178 493.617 757.476 491.902L757.479 491.902C757.468 491.898 757.452 491.893 757.44 491.889C757.321 491.845 757.198 491.806 757.076 491.769C752.174 490.175 714.831 478.455 714.831 478.455L721.327 437.981L754.867 448.875C752.783 451.026 751.286 454.107 750.855 457.652C749.97 464.933 753.907 471.401 759.65 472.1C765.393 472.798 770.766 467.462 771.651 460.181C772.454 453.582 769.292 447.657 764.417 446.085L764.415 446.081C762.23 445.353 711.549 429.391 709.758 428.827L700.084 480.276Z" fill="#FFD700"/>
</g>
<g opacity="0.75" clip-path="url(#clip9_247_341)">
<path d="M168.368 707.06L208.505 682.631C208.808 685.346 210.042 688.186 212.188 690.602C216.813 695.813 223.896 697.08 228.005 693.431C232.115 689.783 231.697 682.601 227.072 677.39C222.967 672.765 216.929 671.253 212.75 673.521L212.752 673.518C212.742 673.523 212.728 673.532 212.718 673.538C212.612 673.595 212.507 673.658 212.404 673.721C208.185 676.208 176.349 695.417 176.349 695.417L151.625 665.33L180.481 648.308C180.701 651.145 181.952 654.149 184.204 656.686C188.83 661.897 195.912 663.164 200.022 659.515C204.132 655.867 203.714 648.684 199.088 643.474C194.896 638.75 188.689 637.274 184.503 639.755L184.498 639.754C182.605 640.851 139.359 666.885 137.831 667.805L168.368 707.06Z" fill="#FFD700"/>
</g>
</g>
<defs>
<clipPath id="clip0_247_341">
<rect width="78" height="78" fill="white" transform="translate(268 99) rotate(-53)"/>
</clipPath>
<clipPath id="clip1_247_341">
<rect width="66" height="66" fill="white" transform="translate(91.3032 144.263) rotate(-92)"/>
</clipPath>
<clipPath id="clip2_247_341">
<rect width="45.75" height="45.75" fill="white" transform="translate(688.798 59.4636) rotate(155)"/>
</clipPath>
<clipPath id="clip3_247_341">
<rect width="78.75" height="78.75" fill="white" transform="translate(10 268) rotate(4)"/>
</clipPath>
<clipPath id="clip4_247_341">
<rect width="81.75" height="81.75" fill="white" transform="translate(525.963 190.103) rotate(-97)"/>
</clipPath>
<clipPath id="clip5_247_341">
<rect width="57.75" height="57.75" fill="white" transform="translate(483 246.971) rotate(-14)"/>
</clipPath>
<clipPath id="clip6_247_341">
<rect width="75" height="75" fill="white" transform="translate(236 495) rotate(-73)"/>
</clipPath>
<clipPath id="clip7_247_341">
<rect width="71.25" height="71.25" fill="white" transform="translate(461.744 558) rotate(41)"/>
</clipPath>
<clipPath id="clip8_247_341">
<rect width="75" height="75" fill="white" transform="translate(689.333 501) rotate(-75)"/>
</clipPath>
<clipPath id="clip9_247_341">
<rect width="71.25" height="71.25" fill="white" transform="translate(176.356 727.75) rotate(-123.529)"/>
</clipPath>
</defs>
</svg>
