<svg viewBox="0 0 482 172" fill="none" xmlns="http://www.w3.org/2000/svg">
<path fill-rule="evenodd" clip-rule="evenodd" d="M463.446 0L477.912 57.5068C480.27 61.3801 481.645 65.8757 481.645 70.6908C481.645 85.1188 469.509 96.8152 454.537 96.8152C439.565 96.8152 427.429 85.119 427.429 70.6908C427.429 56.2627 439.565 44.5664 454.537 44.5664C458.631 44.5664 462.499 45.4664 465.979 47.0326L454.664 2.05159L463.446 0ZM114.664 22L27.723 45.7453L40.3729 102.466C36.2826 99.7066 31.3626 98.0936 26.0666 98.0936C11.8664 98.0936 0.35498 109.668 0.35498 123.945C0.35498 138.222 11.8664 149.796 26.0666 149.796C40.2668 149.796 51.7781 138.222 51.7781 123.945C51.7781 118.982 50.363 114.363 47.9521 110.426L37.9228 65.4561L112.926 41.7472L119.786 75.2456C115.669 72.4296 110.699 70.7807 105.344 70.7807C91.1439 70.7807 79.6323 82.3548 79.6323 96.632C79.6323 110.909 91.1439 122.483 105.344 122.483C119.544 122.483 131.056 110.909 131.056 96.632C131.056 91.6167 129.612 86.9509 127.153 82.9873L114.664 22ZM279.426 76C265.257 76 253.77 87.3246 253.77 101.294C253.77 105.243 254.714 108.966 256.351 112.296L270.994 171.847L279.306 169.861L268.01 123.922C271.452 125.613 275.319 126.589 279.426 126.589C293.596 126.589 305.082 115.264 305.082 101.294C305.082 87.3248 293.596 76 279.426 76Z" fill="#FFD700"/>
</svg>
