<?xml version="1.0" standalone="no"?>
<svg version="1.0" xmlns="http://www.w3.org/2000/svg"
 width="1920.000000pt" height="174.000000pt" viewBox="0 0 1920.000000 174.000000"
 preserveAspectRatio="xMidYMid meet">

<g transform="translate(0.000000,174.000000) scale(0.100000,-0.100000)"
fill="#72207b" stroke="none">
<path d="M13900 1441 l0 -300 -47 -3 -48 -3 -3 -562 -2 -563 2637 2 c1451 0
2622 3 2603 5 -19 2 -521 47 -1116 99 l-1080 94 -338 0 -338 0 -58 45 -58 45
-724 0 -723 0 -44 -25 c-23 -14 -45 -25 -47 -25 -2 0 -4 200 -4 445 l0 445
-40 0 -40 0 0 300 0 300 -265 0 -265 0 0 -299z"/>
<path d="M4976 1385 c-13 -99 -44 -182 -79 -218 -18 -17 -119 -83 -225 -146
-105 -63 -209 -129 -231 -148 -22 -18 -58 -40 -80 -48 -72 -25 -224 -53 -351
-65 -299 -27 -639 -74 -759 -105 -31 -8 -128 -21 -216 -30 -426 -42 -571 -64
-693 -106 -31 -11 -163 -37 -292 -59 -313 -52 -530 -93 -670 -124 -156 -35
-885 -121 -1079 -127 -55 -2 -71 -7 -120 -40 -69 -46 -148 -114 -162 -140 -10
-19 108 -19 6398 -19 l6408 0 -3 57 c-3 48 -10 65 -39 101 l-34 42 -159 0
-158 0 -44 -49 -43 -50 -1340 10 c-803 5 -1380 13 -1440 19 -269 29 -445 69
-791 181 -426 137 -615 188 -774 209 -77 10 -117 8 -405 -24 -582 -64 -658
-70 -925 -70 l-255 -1 -95 46 c-52 25 -184 105 -292 177 -236 158 -318 203
-420 231 -97 26 -360 138 -451 192 -102 60 -150 146 -165 289 l-8 75 -8 -60z"/>
</g>
</svg>
